<!DOCTYPE svg PUBLIC "-//W3C//DTD SVG 1.1//EN" "http://www.w3.org/Graphics/SVG/1.1/DTD/svg11.dtd">
<!-- Uploaded to: SVG Repo, www.svgrepo.com, Transformed by: SVG Repo Mixer Tools -->
<svg fill="#6415ff" height="800px" width="800px" version="1.1" id="Capa_1" xmlns="http://www.w3.org/2000/svg" xmlns:xlink="http://www.w3.org/1999/xlink" viewBox="0 0 405.117 405.117" xml:space="preserve">
<g id="SVGRepo_bgCarrier" stroke-width="0"/>
<g id="SVGRepo_tracerCarrier" stroke-linecap="round" stroke-linejoin="round"/>
<g id="SVGRepo_iconCarrier"> <g> <path d="M366.522,159.696c-15.449-59.059-62.042-105.651-121.101-121.101C243.162,16.94,224.803,0,202.559,0 s-40.604,16.94-42.862,38.595c-59.059,15.45-105.651,62.043-121.101,121.101C16.94,161.955,0,180.314,0,202.559 s16.94,40.604,38.596,42.862c15.449,59.059,62.042,105.651,121.101,121.101c2.259,21.656,20.618,38.596,42.862,38.596 s40.604-16.939,42.862-38.596c59.059-15.449,105.651-62.042,121.101-121.101c21.656-2.259,38.596-20.618,38.596-42.862 S388.178,161.955,366.522,159.696z M346.52,242.763c-14.023,50.15-53.607,89.733-103.757,103.757 c-6.238-16.127-21.902-27.6-40.204-27.6s-33.966,11.473-40.204,27.6c-50.149-14.023-89.733-53.606-103.757-103.757 c16.127-6.238,27.6-21.902,27.6-40.204c0-18.302-11.473-33.966-27.6-40.204c14.023-50.15,53.606-89.733,103.757-103.757 c6.238,16.127,21.901,27.6,40.204,27.6s33.966-11.473,40.204-27.6c50.15,14.023,89.733,53.606,103.757,103.757 c-16.127,6.238-27.6,21.902-27.6,40.204C318.92,220.86,330.393,236.524,346.52,242.763z"/> <path d="M152.559,271.893c0,3.613,2.935,6.543,6.548,6.543h86.904c3.612,0,6.548-2.93,6.548-6.543v-12.977h-100V271.893z"/> <path d="M246.011,190.174h-2.354v-22.396c0-22.661-18.436-41.098-41.099-41.098s-41.099,18.437-41.099,41.098v22.396h-2.354 c-3.613,0-6.548,2.932-6.548,6.545v50.197h100v-50.197C252.559,193.106,249.623,190.174,246.011,190.174z M227.657,190.174H177.46 v-22.396c0-13.839,11.259-25.098,25.099-25.098c13.84,0,25.099,11.259,25.099,25.098V190.174z"/> </g> </g>
</svg>