<svg xmlns="http://www.w3.org/2000/svg" viewBox="0 0 500 500"><g id="freepik--Floor--inject-63"><ellipse id="freepik--floor--inject-63" cx="250" cy="368.55" rx="211.12" ry="121.89" style="fill:#fafafa"></ellipse></g><g id="freepik--Plants--inject-63"><g id="freepik--plants--inject-63"><path d="M468.51,300.46c-9.18,2-17.26,18.07-18.29,34.09-.61,9.49.57,24.72,1.33,32.05l3,1.32,1.19.79,4.42,2.23,1.59,1a103.82,103.82,0,0,1,1.88-24.1h0a47.78,47.78,0,0,1,3.52-10.47c3.09-6.58,7.82-13.07,9.78-17.61C481.86,308.41,477.06,298.63,468.51,300.46Z" style="fill:#FFC100"></path><g style="opacity:0.65"><path d="M468.51,300.46c-9.18,2-17.26,18.07-18.29,34.09-.61,9.49.57,24.72,1.33,32.05l3,1.32,1.19.79,4.42,2.23,1.59,1a103.82,103.82,0,0,1,1.88-24.1h0a47.78,47.78,0,0,1,3.52-10.47c3.09-6.58,7.82-13.07,9.78-17.61C481.86,308.41,477.06,298.63,468.51,300.46Z" style="fill:#fff"></path></g><path d="M471.09,306.76c-9.63,9.56-17.75,37.48-15.34,61.95l-1.19-.79c-2.15-24.48,6.07-52.37,15.75-62a.56.56,0,1,1,.78.8Z" style="fill:#fff"></path><path d="M478,329.87c-2.07.91-7,4.8-8.73,7.41a63.11,63.11,0,0,0-5.59,10.52h0c-2.05,5-3.29,16-3.47,23.13l2.93,1.78,1.08.71,2.64,2.2c1-3.54,4.8-11.28,7.14-15.29,5.78-9.87,15.74-16.78,16.81-22.44C492.05,331.1,487.17,325.79,478,329.87Z" style="fill:#FFC100"></path><path d="M478,329.87c-2.07.91-7,4.8-8.73,7.41a63.11,63.11,0,0,0-5.59,10.52h0c-2.05,5-3.29,16-3.47,23.13l2.93,1.78,1.08.71,2.64,2.2c1-3.54,4.8-11.28,7.14-15.29,5.78-9.87,15.74-16.78,16.81-22.44C492.05,331.1,487.17,325.79,478,329.87Z" style="fill:#fff;opacity:0.30000000000000004"></path><path d="M482.86,336.43c-6,3.47-16.85,18.72-18.68,37l-1.08-.71c1.95-18.28,12.66-33.46,19.2-37.25a.55.55,0,0,1,.77.2A.56.56,0,0,1,482.86,336.43Z" style="fill:#fff"></path></g></g><g id="freepik--Shadows--inject-63"><path id="freepik--Shadow--inject-63" d="M343.57,394.06l-60.89,35.19c-3.13,1.8-3.13,4.73,0,6.54l42.58,24.61a12.52,12.52,0,0,0,11.31,0l60.89-35.19c3.12-1.81,3.12-4.74,0-6.54l-42.58-24.61A12.46,12.46,0,0,0,343.57,394.06Z" style="fill:#e6e6e6"></path><ellipse id="freepik--shadow--inject-63" cx="408.13" cy="397.45" rx="70.6" ry="40.76" style="fill:#e6e6e6"></ellipse><path id="freepik--shadow--inject-63" d="M35.15,458.62l145.69-84.11c2.4-1.38,2.4-3.62,0-5l-15.71-9.07a9.51,9.51,0,0,0-8.66,0L10.77,444.55c-2.39,1.38-2.39,3.62,0,5l15.72,9.07A9.51,9.51,0,0,0,35.15,458.62Z" style="fill:#e0e0e0"></path><path id="freepik--shadow--inject-63" d="M177,441.14,322.74,357c2.39-1.38,2.39-3.61,0-5l-48.48-28a9.57,9.57,0,0,0-8.66,0L119.91,408.16c-2.4,1.38-2.4,3.61,0,5l48.47,28A9.57,9.57,0,0,0,177,441.14Z" style="fill:#e0e0e0"></path></g><g id="freepik--Virus--inject-63"><g id="freepik--virus--inject-63"><path d="M164.72,27a8.62,8.62,0,0,1-3.78,1.79c.58-.42.62-1.68-.26-3.82-.71-1.74-1.46-3.4-2-4.58-.08-.18-.16-.35-.24-.5l1-.47c.07.16.15.32.24.5.56,1.18,1.38,2.8,2.27,4.46C163,26.41,164,27.18,164.72,27Z" style="fill:#f0f0f0"></path><path d="M159.72,20a3.72,3.72,0,0,1-.48.27,4.12,4.12,0,0,1-.51.2c-.11-.22-.2-.43-.3-.62l1-.47Z" style="fill:#e0e0e0"></path><path d="M160.34,18.29a.82.82,0,0,0-.19-.25l-.06-.05h0l-.1-.06h-.06l-.08,0h0a2.6,2.6,0,0,0-1.61.29A2.55,2.55,0,0,0,157,19.23h0l0,.08,0,.05a.52.52,0,0,0,0,.11v0a.2.2,0,0,0,0,.07,1.16,1.16,0,0,0,.07.31,1,1,0,0,0,.19.25,2,2,0,0,0,1.93-.12c.82-.39,1.36-1,1.32-1.42A.66.66,0,0,0,160.34,18.29Z" style="fill:#f0f0f0"></path><path d="M159.56,18.37c.13.26-.22.7-.78,1s-1.12.27-1.25,0,0-.39.25-.61c-.18.3,0,.56.4.54a2.19,2.19,0,0,0,1.12-.55c.17-.19.24-.37.08-.5A.32.32,0,0,1,159.56,18.37Z" style="fill:#e0e0e0"></path><path d="M158.17,30.79A9.69,9.69,0,0,1,155.44,34c.38-.62.57-1.2-.91-2.63-1.21-1.17-1.25-1.28-2.13-2L152,29l.71-.82.37.32c.89.75,1,.8,2.32,1.82C157.07,31.54,157.62,31.25,158.17,30.79Z" style="fill:#f0f0f0"></path><path d="M153.26,28.59a2.66,2.66,0,0,1-.33.44,2.4,2.4,0,0,1-.39.39L152,29l.71-.82C152.9,28.29,153.07,28.44,153.26,28.59Z" style="fill:#e0e0e0"></path><path d="M153.2,26.35a.93.93,0,0,0-.34-.18l-.08,0h-.23l-.1,0h0A3.67,3.67,0,0,0,150,29h0a.41.41,0,0,0,0,.11v.06l0,.13s0,0,0,0l0,.08a1,1,0,0,0,.23.3.93.93,0,0,0,.32.18c.49.18,1.34-.26,2-1.06s1-1.72.74-2.18A1,1,0,0,0,153.2,26.35Z" style="fill:#f0f0f0"></path><path d="M152.39,26.81c.27.23.1.87-.38,1.43s-1.09.82-1.35.6-.16-.44,0-.78c-.06.41.26.61.68.39a2.61,2.61,0,0,0,1-1.14c.09-.29.08-.51-.16-.58A.43.43,0,0,1,152.39,26.81Z" style="fill:#e0e0e0"></path><path d="M153.7,37.28a9.09,9.09,0,0,1-1,3.39c.08-.6-.51-1.29-2-1.83a9.62,9.62,0,0,0-1.35-.53L149,38.2l.26-.88.37.1a9.5,9.5,0,0,0,1.42.3C152.57,38.07,153.44,37.83,153.7,37.28Z" style="fill:#f0f0f0"></path><path d="M149.8,37.48a2.62,2.62,0,0,1-.1.45,2.41,2.41,0,0,1-.17.43L149,38.2l.26-.88Z" style="fill:#e0e0e0"></path><path d="M149.05,36.1a.59.59,0,0,0-.26,0h-.09l-.09,0,0,0-.06,0h0a2.6,2.6,0,0,0-.76,2.54h0l0,.07s0,0,0,0l.06.08,0,0,0,0a.73.73,0,0,0,.23.13.59.59,0,0,0,.26,0c.37,0,.8-.55,1-1.28s.15-1.4-.15-1.63A.56.56,0,0,0,149.05,36.1Z" style="fill:#f0f0f0"></path><path d="M148.67,36.63c.23.07.31.54.16,1s-.47.85-.71.78-.23-.24-.24-.5c.09.28.35.32.56,0a1.79,1.79,0,0,0,.29-1c0-.21-.09-.35-.26-.32A.24.24,0,0,1,148.67,36.63Z" style="fill:#e0e0e0"></path><path d="M152.29,44.41a8.75,8.75,0,0,1,.53,4.16c-.22-.69-1.39-1.12-3.66-.94-1.85.14-3.64.33-4.92.49l-.54.06-.13-1.08.53-.07c1.28-.17,3.06-.44,4.88-.77C151.22,45.84,152.25,45.14,152.29,44.41Z" style="fill:#f0f0f0"></path><path d="M144.25,47c0,.17.08.35.11.54a5.21,5.21,0,0,1,0,.55l-.69.08-.13-1.08Z" style="fill:#e0e0e0"></path><path d="M142.46,45.45a.92.92,0,0,0-.37.14l-.07,0,0,0-.1.09,0,.06-.07.09h0a3.41,3.41,0,0,0-.28,2,3.32,3.32,0,0,0,.78,1.87h0l.08.07,0,0,.12.07h0a.13.13,0,0,0,.08,0,.88.88,0,0,0,.4,0,1.11,1.11,0,0,0,.36-.13c.48-.25.75-1.23.6-2.34s-.64-2-1.17-2.11A1,1,0,0,0,142.46,45.45Z" style="fill:#f0f0f0"></path><path d="M142.26,46.4c.36,0,.74.54.84,1.31s-.12,1.43-.48,1.48-.46-.19-.62-.54c.28.34.66.22.78-.26a2.66,2.66,0,0,0-.22-1.55c-.16-.27-.34-.42-.55-.28A.4.4,0,0,1,142.26,46.4Z" style="fill:#e0e0e0"></path><path d="M154,51.93a15,15,0,0,1,2.08,3.4c-.41-.54-1.19-.71-2.26-.19-.87.43-1.69.88-2.27,1.22l-.24.15-.54-.89.24-.14c.57-.36,1.35-.88,2.13-1.46C154.06,53.3,154.27,52.54,154,51.93Z" style="fill:#f0f0f0"></path><path d="M151.12,55.39a4.61,4.61,0,0,1,.29.43,4.23,4.23,0,0,1,.25.46l-.38.23-.54-.89Z" style="fill:#e0e0e0"></path><path d="M149.52,55a.64.64,0,0,0-.2.2l0,.05,0,0,0,.09s0,0,0,0,0,.05,0,.08h0a2.34,2.34,0,0,0,.4,1.4,2.4,2.4,0,0,0,1.06,1h0l.08,0H151a.66.66,0,0,0,.27-.09.64.64,0,0,0,.2-.2c.24-.3.13-1-.29-1.7s-1-1.1-1.38-1A.67.67,0,0,0,149.52,55Z" style="fill:#f0f0f0"></path><path d="M149.67,55.64c.22-.14.64.14.93.61s.33,1,.11,1.1-.35,0-.56-.16c.28.13.49,0,.43-.4a1.85,1.85,0,0,0-.59-.95c-.18-.13-.34-.18-.44,0A.29.29,0,0,1,149.67,55.64Z" style="fill:#e0e0e0"></path><path d="M158.48,57.94a8.89,8.89,0,0,1,3.44,2.39c-.66-.3-1.75.28-3.14,2.07-1.13,1.46-2.17,2.91-2.91,4l-.31.44-.89-.62c.09-.14.2-.29.3-.45.73-1,1.71-2.54,2.68-4.12C158.83,59.68,159,58.46,158.48,57.94Z" style="fill:#f0f0f0"></path><path d="M155.06,65.61a4.83,4.83,0,0,1,.47.28,3.84,3.84,0,0,1,.43.35l-.4.56-.89-.62Z" style="fill:#e0e0e0"></path><path d="M152.46,65.87a1.08,1.08,0,0,0-.17.4s0,.06,0,.1v0a.75.75,0,0,0,0,.15s0,0,0,.07a.53.53,0,0,0,0,.12h0a4.23,4.23,0,0,0,3.53,2.44H156l.07,0,.15,0a.05.05,0,0,1,0,0l.08,0a1,1,0,0,0,.32-.29,1.19,1.19,0,0,0,.16-.39c.14-.58-.45-1.5-1.46-2.2s-2.09-.93-2.57-.59A1,1,0,0,0,152.46,65.87Z" style="fill:#f0f0f0"></path><path d="M153.08,66.73c.23-.33,1-.21,1.68.28s1.07,1.14.85,1.47-.49.24-.89.11c.48,0,.66-.37.36-.82a2.91,2.91,0,0,0-1.42-1c-.34-.07-.59,0-.63.24A.43.43,0,0,1,153.08,66.73Z" style="fill:#e0e0e0"></path><path d="M165,61.61a13.61,13.61,0,0,1,4.32.81c-.76-.05-1.49.6-1.91,2.14-.34,1.26-.61,2.48-.78,3.36,0,.14,0,.26-.07.38l-1.13-.21c0-.12,0-.24.07-.38.16-.88.35-2.12.49-3.42C166.19,62.71,165.74,61.84,165,61.61Z" style="fill:#f0f0f0"></path><path d="M165.56,67.57a4.1,4.1,0,0,1,.57.08,5.07,5.07,0,0,1,.56.13c0,.19-.07.36-.1.52l-1.13-.21C165.49,67.93,165.52,67.76,165.56,67.57Z" style="fill:#e0e0e0"></path><path d="M164,68.66a.86.86,0,0,0,0,.32s0,0,0,.06v0a.31.31,0,0,0,0,.1l0,0,.06.07h0a2.6,2.6,0,0,0,1.46.71,2.7,2.7,0,0,0,1.63-.13h0l.08-.05,0,0,.09-.07v0s0,0,.05,0a.69.69,0,0,0,.12-.29.64.64,0,0,0,0-.31c-.07-.43-.75-.87-1.63-1s-1.67,0-1.9.37A.74.74,0,0,0,164,68.66Z" style="fill:#f0f0f0"></path><path d="M164.69,69.05c.05-.29.59-.43,1.2-.32s1.06.45,1,.74-.26.3-.56.34c.32-.13.33-.45,0-.66a2.09,2.09,0,0,0-1.23-.22c-.25,0-.41.15-.36.35A.29.29,0,0,1,164.69,69.05Z" style="fill:#e0e0e0"></path><path d="M173.18,62.29a28.42,28.42,0,0,1,3.13-.74c-.42.13-.94.46-.95.91a4,4,0,0,0,.09,1,.36.36,0,0,0,0,.1l-.66.16,0-.11a3.08,3.08,0,0,0-.39-.9A1.15,1.15,0,0,0,173.18,62.29Z" style="fill:#f0f0f0"></path><path d="M174.75,63.47l.33-.09a2.1,2.1,0,0,1,.33-.06c0,.08,0,.17.06.24l-.66.16Z" style="fill:#e0e0e0"></path><path d="M173.91,64.7a.51.51,0,0,0,.11.22l0,0h0l.07.06,0,0,.06,0h0a2,2,0,0,0,1.25,0,2,2,0,0,0,1.11-.6h0l0,0s0,0,0,0a.3.3,0,0,0,0-.08v0s0,0,0-.06a.66.66,0,0,0,0-.24.55.55,0,0,0-.1-.22c-.19-.28-.8-.38-1.48-.22s-1.18.53-1.22.86A.49.49,0,0,0,173.91,64.7Z" style="fill:#f0f0f0"></path><path d="M174.51,64.77c0-.23.29-.49.75-.61s.89,0,.94.21-.08.29-.28.41c.18-.19.09-.42-.22-.46a1.62,1.62,0,0,0-.94.23c-.15.12-.23.24-.13.36A.31.31,0,0,1,174.51,64.77Z" style="fill:#e0e0e0"></path><path d="M180.2,59.77a9.88,9.88,0,0,1,3.28-2.61c-.48.54-.79,1.06.36,2.7.94,1.34,1,1.46,1.66,2.36l.3.37-.86.68-.29-.37c-.72-.89-.8-1-1.89-2.18C181.42,59.23,180.83,59.41,180.2,59.77Z" style="fill:#f0f0f0"></path><path d="M184.52,62.73a3.57,3.57,0,0,1,.4-.37,4,4,0,0,1,.45-.31c.15.2.3.37.43.54l-.86.68Z" style="fill:#e0e0e0"></path><path d="M184.15,65a.8.8,0,0,0,.29.23l.08,0h0a.31.31,0,0,0,.13,0h.17a3.16,3.16,0,0,0,1.78-.76A3.12,3.12,0,0,0,187.77,63h0s0-.06,0-.1a.13.13,0,0,0,0-.06v-.14s0,0,0,0,0-.06,0-.08a.91.91,0,0,0-.17-.34.86.86,0,0,0-.28-.23c-.45-.27-1.37,0-2.2.65s-1.3,1.5-1.14,2A1,1,0,0,0,184.15,65Z" style="fill:#f0f0f0"></path><path d="M185,64.64c-.22-.27.07-.87.65-1.32s1.22-.61,1.44-.33.07.46-.13.76c.13-.39-.15-.64-.6-.51a2.56,2.56,0,0,0-1.15.94c-.15.27-.18.48,0,.59A.34.34,0,0,1,185,64.64Z" style="fill:#e0e0e0"></path><path d="M185.79,54.15A9,9,0,0,1,187.42,51c-.2.57.25,1.35,1.58,2.15a9.54,9.54,0,0,0,1.2.77l.33.17-.42.82-.33-.17a10.13,10.13,0,0,0-1.32-.55C187,53.58,186.15,53.66,185.79,54.15Z" style="fill:#f0f0f0"></path><path d="M189.59,54.66a2.6,2.6,0,0,1,.19-.42,2.23,2.23,0,0,1,.24-.4l.51.27-.42.82Z" style="fill:#e0e0e0"></path><path d="M190.06,56.16a.92.92,0,0,0,.26.07h.09l.09,0h.05l.06,0h0a2.26,2.26,0,0,0,.93-1,2.19,2.19,0,0,0,.29-1.34h0s0,0,0-.07,0,0,0,0a.36.36,0,0,0,0-.09v0s0,0,0,0a.7.7,0,0,0-.2-.18.77.77,0,0,0-.26-.07c-.36,0-.88.4-1.23,1.07s-.41,1.35-.17,1.62A.65.65,0,0,0,190.06,56.16Z" style="fill:#f0f0f0"></path><path d="M190.55,55.71c-.22-.12-.21-.59,0-1.05s.61-.75.83-.63.19.28.14.53c0-.29-.28-.37-.53-.15a1.7,1.7,0,0,0-.48.94c0,.21,0,.36.2.37A.27.27,0,0,1,190.55,55.71Z" style="fill:#e0e0e0"></path><path d="M188.53,47.39a9,9,0,0,1,.26-4.19c.09.72,1.15,1.36,3.39,1.62,1.83.21,3.61.36,4.88.45l.54,0-.07,1.09-.53,0c-1.28-.07-3.06-.14-4.9-.16C189.84,46.18,188.71,46.68,188.53,47.39Z" style="fill:#f0f0f0"></path><path d="M196.85,46.35a3.33,3.33,0,0,1,0-.55,3.05,3.05,0,0,1,.08-.54l.68,0-.07,1.09Z" style="fill:#e0e0e0"></path><path d="M198.3,48.22a.89.89,0,0,0,.4-.06l.08,0h0l.12-.08,0-.05.08-.07h0a3.31,3.31,0,0,0,.65-1.93,3.2,3.2,0,0,0-.41-2h0l-.07-.09,0,0a.44.44,0,0,0-.11-.09l0,0-.08-.05a.94.94,0,0,0-.38-.11,1.21,1.21,0,0,0-.38.06c-.52.16-1,1.06-1,2.18s.26,2.08.75,2.3A1.13,1.13,0,0,0,198.3,48.22Z" style="fill:#f0f0f0"></path><path d="M198.69,47.32c-.37,0-.63-.66-.58-1.44s.38-1.38.75-1.36.41.27.51.65c-.21-.39-.61-.34-.82.1a2.76,2.76,0,0,0-.08,1.57c.11.3.26.47.49.38A.37.37,0,0,1,198.69,47.32Z" style="fill:#e0e0e0"></path><path d="M188.27,39.67a15.43,15.43,0,0,1-1.39-3.74c.3.61,1,.92,2.16.62.93-.25,1.81-.53,2.44-.76l.26-.1.36,1-.26.1c-.62.23-1.47.59-2.34,1C188.44,38.3,188.1,39,188.27,39.67Z" style="fill:#f0f0f0"></path><path d="M191.69,36.82a2.67,2.67,0,0,1-.21-.48c-.06-.17-.12-.33-.16-.49l.42-.16.36,1Z" style="fill:#e0e0e0"></path><path d="M193.17,37.55a.78.78,0,0,0,.24-.16l0,0,0,0a.41.41,0,0,0,.05-.09l0,0,0-.07h0a2.75,2.75,0,0,0-1-2.62h0l-.07,0-.05,0-.09,0h-.09a.55.55,0,0,0-.28,0,.51.51,0,0,0-.23.15c-.3.25-.32,1,0,1.72s.77,1.28,1.16,1.28A.84.84,0,0,0,193.17,37.55Z" style="fill:#f0f0f0"></path><path d="M193.16,36.85c-.25.09-.61-.25-.8-.77s-.15-1,.1-1.11.35.06.52.27c-.25-.18-.5,0-.5.31a2,2,0,0,0,.4,1.05c.15.16.3.23.43.1A.27.27,0,0,1,193.16,36.85Z" style="fill:#e0e0e0"></path><path d="M184.86,32.87a7.08,7.08,0,0,1-2.94-3c.62.39,2-.18,4.15-2.1.5-.46,1.75-1.39,2.92-2.52l.49-.48.76.78-.49.48c-1.15,1.14-2.39,2.38-2.71,2.72C185.07,30.86,184.48,32.24,184.86,32.87Z" style="fill:#f0f0f0"></path><path d="M189.75,26a4.59,4.59,0,0,1-.41-.36,4.32,4.32,0,0,1-.35-.42l.49-.48.76.78Z" style="fill:#e0e0e0"></path><path d="M192.35,26.28a1,1,0,0,0,.24-.36l0-.09s0,0,0,0a.77.77,0,0,0,0-.15.22.22,0,0,0,0-.08v-.12h0a3.61,3.61,0,0,0-1.09-1.94,3.57,3.57,0,0,0-1.92-1.13h-.2l-.15,0h0l-.09,0a1.2,1.2,0,0,0-.37.23,1.16,1.16,0,0,0-.23.36c-.25.53.16,1.56,1,2.43s1.87,1.31,2.42,1.07A1,1,0,0,0,192.35,26.28Z" style="fill:#f0f0f0"></path><path d="M191.9,25.31c-.29.29-1,0-1.59-.58s-.84-1.32-.56-1.6.52-.15.9.05c-.47-.11-.72.24-.51.74a3,3,0,0,0,1.21,1.21c.32.13.57.14.67-.12A.38.38,0,0,1,191.9,25.31Z" style="fill:#e0e0e0"></path><path d="M179.24,28.2a10.64,10.64,0,0,1-4.09-1.61c.74.16,1.67-.56,2.54-2.43a25.35,25.35,0,0,0,1.06-2.48l.19-.46,1.06.42c-.05.15-.11.3-.18.46-.42,1.1-.25,1-.78,2.59C178.4,26.66,178.59,27.81,179.24,28.2Z" style="fill:#f0f0f0"></path><path d="M179.81,22.13c-.17-.05-.36-.11-.54-.18a4.27,4.27,0,0,1-.53-.24c.07-.17.14-.33.2-.49l1.06.42C179.94,21.8,179.88,22,179.81,22.13Z" style="fill:#e0e0e0"></path><path d="M181.53,21.36a.6.6,0,0,0,.05-.32v-.1a.19.19,0,0,0,0-.1.14.14,0,0,0,0-.06.25.25,0,0,0,0-.07h0a3.1,3.1,0,0,0-2.92-1.15h0l-.08,0-.05,0-.1.06s0,0,0,0a.12.12,0,0,0-.05.05.71.71,0,0,0-.18.26.79.79,0,0,0,0,.3c0,.44.57,1,1.41,1.33s1.64.32,1.93,0A.62.62,0,0,0,181.53,21.36Z" style="fill:#f0f0f0"></path><path d="M180.94,20.84c-.1.28-.66.32-1.24.09s-.95-.64-.85-.91.31-.25.62-.23c-.35.07-.41.38-.12.65a2.15,2.15,0,0,0,1.17.45c.25,0,.43-.08.41-.28A.27.27,0,0,1,180.94,20.84Z" style="fill:#e0e0e0"></path><path d="M171.32,25.88a27.93,27.93,0,0,1-3.21.13c.44,0,1-.27,1.11-.71a4.41,4.41,0,0,0,.1-1v-.11l.68,0a.38.38,0,0,0,0,.1,3,3,0,0,0,.21,1A1.13,1.13,0,0,0,171.32,25.88Z" style="fill:#f0f0f0"></path><path d="M170,24.42l-.34,0h-.34c0-.09,0-.18,0-.26l.68,0C170,24.24,170,24.33,170,24.42Z" style="fill:#e0e0e0"></path><path d="M171.06,23.37a.48.48,0,0,0-.06-.24l0-.05v0l-.05-.06,0,0a.1.1,0,0,0-.05,0h0a2.44,2.44,0,0,0-2.43.11h0l0,0,0,0-.05.07v0s0,0,0,.05a.47.47,0,0,0,0,.24.44.44,0,0,0,.06.23c.13.31.72.53,1.41.5s1.26-.3,1.36-.62A.45.45,0,0,0,171.06,23.37Z" style="fill:#f0f0f0"></path><path d="M170.49,23.19c0,.23-.37.43-.85.45s-.88-.15-.89-.37.14-.28.36-.36c-.22.16-.17.4.12.5a1.72,1.72,0,0,0,1-.06c.18-.08.28-.18.2-.32A.29.29,0,0,1,170.49,23.19Z" style="fill:#e0e0e0"></path><path d="M187.18,36.35a18.41,18.41,0,1,1-24.51-8.75A18.4,18.4,0,0,1,187.18,36.35Z" style="fill:#f0f0f0"></path><path d="M187.18,36.35a18.41,18.41,0,1,1-24.51-8.75A18.4,18.4,0,0,1,187.18,36.35Z" style="fill:#f0f0f0"></path><path d="M188.86,42.42c.38,5.44-5.63,18-19,18s-17.73-13.79-17.56-18.47a18.4,18.4,0,1,0,36.57.48Z" style="fill:#e0e0e0"></path><path d="M165.08,53.81c1.3.48,2.07,1.66,1.71,2.64s-1.71,1.38-3,.91-2.07-1.66-1.71-2.64S163.78,53.33,165.08,53.81Z" style="fill:#e0e0e0"></path><path d="M162.63,55.6c-.28-.6.58-1.31,1.81-1,1,.29,1.72,1.05,1.7,1.64a.79.79,0,0,1-.84.74c.4-.16.53-.59.18-1.09a2.42,2.42,0,0,0-2-1C162.94,55,162.64,55.28,162.63,55.6Z" style="opacity:0.1"></path><path d="M179.12,36.66c-1.12-.82-1.52-2.17-.9-3s2-.85,3.14,0,1.52,2.17.9,3A2.26,2.26,0,0,1,179.12,36.66Z" style="fill:#e0e0e0"></path><path d="M182,35.64c.1.65-.92,1.09-2,.39-.86-.54-1.36-1.48-1.18-2.05a.8.8,0,0,1,1-.47c-.43.05-.68.42-.48,1A2.42,2.42,0,0,0,181,36C181.5,36.11,181.87,35.94,182,35.64Z" style="opacity:0.1"></path><path d="M165.16,42.09c-.27,1.13-1.18,1.89-2,1.69a1.9,1.9,0,0,1-1.06-2.41c.26-1.14,1.17-1.9,2-1.7A1.92,1.92,0,0,1,165.16,42.09Z" style="fill:#e0e0e0"></path><path d="M163.42,40.23c.47-.3,1.15.35,1,1.41-.14.84-.7,1.54-1.2,1.59a.67.67,0,0,1-.7-.63c.18.31.55.39.93,0a2.05,2.05,0,0,0,.6-1.8C163.93,40.43,163.68,40.2,163.42,40.23Z" style="opacity:0.1"></path><path d="M173.29,48.64a2.28,2.28,0,0,1,3.14.18,2.28,2.28,0,0,1-1.05,3c-1.16.76-2.56.68-3.14-.19A2.28,2.28,0,0,1,173.29,48.64Z" style="fill:#e0e0e0"></path><path d="M173.28,51.67c-.65-.13-.71-1.24.31-2a2.18,2.18,0,0,1,2.33-.4.8.8,0,0,1,.1,1.12c.1-.42-.16-.79-.78-.79a2.41,2.41,0,0,0-2,1.07C173,51.07,173,51.47,173.28,51.67Z" style="opacity:0.1"></path><path d="M159.1,41.89c-.39,1.33-1.52,2.17-2.52,1.88s-1.5-1.61-1.11-2.94S157,38.66,158,39A2.27,2.27,0,0,1,159.1,41.89Z" style="fill:#e0e0e0"></path><path d="M157.15,39.57c.58-.32,1.34.49,1.06,1.74-.22,1-.93,1.79-1.52,1.81a.78.78,0,0,1-.79-.79c.19.38.63.49,1.1.1a2.43,2.43,0,0,0,.83-2.1C157.75,39.84,157.47,39.56,157.15,39.57Z" style="opacity:0.1"></path><path d="M175.82,41.83a2,2,0,0,1,1.5-2.34c.92-.07,1.74.87,1.83,2.09a2,2,0,0,1-1.5,2.34C176.73,44,175.91,43.05,175.82,41.83Z" style="fill:#e0e0e0"></path><path d="M178.15,43.15c-.38.44-1.27,0-1.42-1.11a1.92,1.92,0,0,1,.7-2,.7.7,0,0,1,.9.41c-.28-.26-.67-.21-1,.26a2.16,2.16,0,0,0,0,2C177.56,43.11,177.89,43.26,178.15,43.15Z" style="opacity:0.1"></path><path d="M171.56,33.87c-1.92.12-3.55-.95-3.65-2.39s1.39-2.71,3.31-2.84,3.54.94,3.64,2.38S173.48,33.74,171.56,33.87Z" style="fill:#e0e0e0"></path><path d="M173.66,30.23c.69.6,0,2-1.76,2.21-1.4.18-2.77-.36-3.08-1.13a1.08,1.08,0,0,1,.65-1.4c-.41.43-.34,1.05.39,1.48a3.36,3.36,0,0,0,3.12.08C173.59,31.14,173.83,30.64,173.66,30.23Z" style="opacity:0.1"></path><path d="M173.13,56.14a1.69,1.69,0,0,1,2.19.84c.21.75-.43,1.59-1.42,1.87a1.7,1.7,0,0,1-2.19-.85C171.5,57.25,172.13,56.42,173.13,56.14Z" style="fill:#e0e0e0"></path><path d="M172.43,58.29c-.43-.24-.22-1,.68-1.36a1.61,1.61,0,0,1,1.75.24.59.59,0,0,1-.19.82c.17-.28.07-.6-.37-.74a1.81,1.81,0,0,0-1.65.31C172.37,57.8,172.3,58.09,172.43,58.29Z" style="opacity:0.1"></path><path d="M179.93,50.37c.81-1.16,2.17-1.61,3-1s.92,2,.12,3.19-2.16,1.61-3,1S179.13,51.53,179.93,50.37Z" style="fill:#e0e0e0"></path><path d="M181.06,53.24c-.66.12-1.14-.9-.46-2,.53-.89,1.47-1.43,2.05-1.25a.79.79,0,0,1,.51,1c-.06-.43-.45-.68-1-.46a2.48,2.48,0,0,0-1.47,1.76C180.57,52.78,180.75,53.15,181.06,53.24Z" style="opacity:0.1"></path><path d="M183.12,43.15a1.48,1.48,0,0,1,.92-1.83c.67-.12,1.35.51,1.5,1.4a1.47,1.47,0,0,1-.92,1.82C184,44.66,183.28,44,183.12,43.15Z" style="fill:#e0e0e0"></path><path d="M184.93,43.94c-.25.35-.93.1-1.13-.71a1.43,1.43,0,0,1,.37-1.5.51.51,0,0,1,.69.24c-.22-.17-.51-.11-.67.25a1.6,1.6,0,0,0,.12,1.47C184.5,44,184.74,44,184.93,43.94Z" style="opacity:0.1"></path><path d="M162.18,34.59a1.29,1.29,0,1,1,.34-2A1.48,1.48,0,0,1,162.18,34.59Z" style="fill:#e0e0e0"></path><path d="M161.85,32.64c.43,0,.59.71,0,1.33a1.41,1.41,0,0,1-1.45.51.5.5,0,0,1-.19-.7c0,.27.19.48.59.42a1.57,1.57,0,0,0,1.15-.91C162.09,33,162,32.73,161.85,32.64Z" style="opacity:0.1"></path><path d="M166,48.09a1.28,1.28,0,1,1-1.11,2.2,1.28,1.28,0,1,1,1.11-2.2Z" style="fill:#e0e0e0"></path><path d="M164.3,49.06c-.14-.4.47-.8,1.24-.47.61.25,1,.8,1,1.18a.51.51,0,0,1-.6.42c.27-.08.39-.34.2-.69a1.59,1.59,0,0,0-1.25-.78C164.55,48.71,164.33,48.86,164.3,49.06Z" style="opacity:0.1"></path><path d="M170.28,38.1a1.49,1.49,0,0,1-1.76-1c-.07-.68.6-1.31,1.49-1.41a1.49,1.49,0,0,1,1.77,1.05C171.85,37.37,171.18,38,170.28,38.1Z" style="fill:#e0e0e0"></path><path d="M171.2,36.35c.33.27,0,.93-.79,1.08a1.42,1.42,0,0,1-1.47-.47.51.51,0,0,1,.28-.67c-.18.21-.14.5.21.69a1.59,1.59,0,0,0,1.47,0C171.18,36.78,171.28,36.54,171.2,36.35Z" style="opacity:0.1"></path><path d="M158.29,49.1a1.28,1.28,0,1,1-2.25,1,1.28,1.28,0,1,1,2.25-1Z" style="fill:#e0e0e0"></path><path d="M156.34,48.77c.15-.4.87-.33,1.26.41a1.41,1.41,0,0,1,0,1.54.52.52,0,0,1-.73,0c.26.11.52,0,.6-.42a1.63,1.63,0,0,0-.48-1.39C156.75,48.65,156.49,48.63,156.34,48.77Z" style="opacity:0.1"></path><path d="M173,43.35a2.51,2.51,0,1,1-2.47-2.16A2.33,2.33,0,0,1,173,43.35Z" style="fill:#e0e0e0"></path><path d="M168.88,42.65c-.41.66,0,1.68,1.08,2.06s2.68-.55,2.38-1.6a1.87,1.87,0,0,1-2,1C169.35,44,168.8,43.32,168.88,42.65Z" style="opacity:0.1"></path></g><g id="freepik--virus--inject-63"><path d="M332.83,51.12a6.24,6.24,0,0,1-2.29,2c.33-.41.11-1.3-.92-2.62-.84-1.08-1.69-2.09-2.3-2.81l-.27-.3.6-.52.27.3c.62.71,1.51,1.69,2.45,2.68C331.54,51,332.38,51.39,332.83,51.12Z" style="fill:#f0f0f0"></path><path d="M328,47.23a3.76,3.76,0,0,1-.28.29,2.13,2.13,0,0,1-.32.23c-.12-.13-.22-.26-.33-.37l.6-.52Z" style="fill:#e0e0e0"></path><path d="M328.08,45.89a.62.62,0,0,0-.19-.14l-.05,0h-.2a2.28,2.28,0,0,0-1.73,1.5h0v.06a.08.08,0,0,0,0,0,.19.19,0,0,0,0,.08v0s0,0,0,0a.53.53,0,0,0,.11.21.68.68,0,0,0,.18.13c.28.15.84,0,1.33-.46s.75-.95.64-1.25A.5.5,0,0,0,328.08,45.89Z" style="fill:#f0f0f0"></path><path d="M327.55,46.1c.14.16,0,.53-.37.82s-.72.4-.86.24-.06-.28.05-.47c-.07.24.11.39.38.3a1.57,1.57,0,0,0,.68-.61c.08-.16.1-.3,0-.36A.23.23,0,0,1,327.55,46.1Z" style="fill:#e0e0e0"></path><path d="M329,55.05a7.06,7.06,0,0,1-1.29,2.75c.14-.51.16-.95-1.15-1.66-1.07-.58-1.13-.65-1.89-1l-.32-.15.33-.72.32.15c.77.35.85.37,2,.82C328.37,55.78,328.7,55.48,329,55.05Z" style="fill:#f0f0f0"></path><path d="M325.13,54.47a2.13,2.13,0,0,1-.14.37,2.89,2.89,0,0,1-.19.35l-.45-.21.33-.72Z" style="fill:#e0e0e0"></path><path d="M324.65,52.91a.76.76,0,0,0-.26-.06h-.09l-.09,0h0l-.07,0h0a2.23,2.23,0,0,0-.91,1.06,2.35,2.35,0,0,0-.24,1.39h0l0,.07s0,0,0,0a.35.35,0,0,0,0,.08v0l0,0a.62.62,0,0,0,.22.17.76.76,0,0,0,.26.06c.37,0,.88-.44,1.21-1.14s.36-1.4.1-1.66A.62.62,0,0,0,324.65,52.91Z" style="fill:#f0f0f0"></path><path d="M324.18,53.39c.23.11.24.59,0,1.08s-.6.78-.83.68-.2-.28-.16-.55c0,.3.3.38.55.14a1.89,1.89,0,0,0,.45-1c0-.22-.05-.37-.22-.37A.34.34,0,0,1,324.18,53.39Z" style="fill:#e0e0e0"></path><path d="M327.13,60.45a6.61,6.61,0,0,1,0,2.57c-.06-.44-.61-.8-1.76-.89a7.74,7.74,0,0,0-1-.11H324l0-.66h.27a6.19,6.19,0,0,0,1.05-.07C326.5,61.23,327.06,60.89,327.13,60.45Z" style="fill:#f0f0f0"></path><path d="M324.45,61.35a1.9,1.9,0,0,1,0,.34,1.76,1.76,0,0,1,0,.33H324l0-.66Z" style="fill:#e0e0e0"></path><path d="M323.66,60.53a.53.53,0,0,0-.19,0l0,0h0a.1.1,0,0,0-.05,0l0,0,0,0h0a1.89,1.89,0,0,0,0,1.93h0l0,0,0,0s0,0,.05.05h0l0,0a.58.58,0,0,0,.19,0,.41.41,0,0,0,.19,0c.25-.08.45-.54.46-1.09s-.17-1-.42-1.1A.41.41,0,0,0,323.66,60.53Z" style="fill:#f0f0f0"></path><path d="M323.49,61c.18,0,.32.31.31.7s-.16.68-.34.68-.21-.13-.26-.31c.11.18.3.16.4-.07a1.34,1.34,0,0,0,0-.77c-.06-.14-.13-.22-.24-.17A.18.18,0,0,1,323.49,61Z" style="fill:#e0e0e0"></path><path d="M327.54,65.71a6.44,6.44,0,0,1,1.18,2.8c-.29-.44-1.19-.51-2.74.06-1.27.46-2.48.94-3.34,1.3l-.37.15-.31-.73.37-.15c.86-.37,2-.91,3.26-1.5C327.07,66.92,327.65,66.23,327.54,65.71Z" style="fill:#f0f0f0"></path><path d="M322.42,69.1a1.64,1.64,0,0,1,.18.35,1.9,1.9,0,0,1,.13.38l-.46.19-.31-.73Z" style="fill:#e0e0e0"></path><path d="M320.87,68.35a.66.66,0,0,0-.23.17.1.1,0,0,0,0,0l0,0a.19.19,0,0,0-.05.09s0,0,0,0a.24.24,0,0,0,0,.08h0a2.35,2.35,0,0,0,.19,1.46,2.4,2.4,0,0,0,.91,1.16h0l.07,0,0,0,.1,0h.09a.69.69,0,0,0,.28-.05.58.58,0,0,0,.23-.17c.29-.27.29-1,0-1.75s-.84-1.26-1.23-1.24A.69.69,0,0,0,320.87,68.35Z" style="fill:#f0f0f0"></path><path d="M320.92,69.06c.24-.11.62.23.84.75s.19,1-.05,1.12-.36,0-.54-.25c.26.18.5,0,.49-.33a1.85,1.85,0,0,0-.45-1c-.16-.16-.32-.23-.44-.09A.24.24,0,0,1,320.92,69.06Z" style="fill:#e0e0e0"></path><path d="M330.18,70.64a10.88,10.88,0,0,1,2.11,2c-.39-.3-1-.26-1.61.31s-1,.94-1.35,1.29l-.14.15-.55-.51.14-.15c.32-.36.77-.87,1.2-1.43S330.5,71,330.18,70.64Z" style="fill:#f0f0f0"></path><path d="M328.86,73.61l.29.25.26.27-.22.23-.55-.51Z" style="fill:#e0e0e0"></path><path d="M327.66,73.62a.49.49,0,0,0-.11.18s0,0,0,0v0a.17.17,0,0,0,0,.07v0a.13.13,0,0,0,0,.06h0a1.6,1.6,0,0,0,.55.89,1.72,1.72,0,0,0,.93.5h.1l.07,0h0l0,0a.45.45,0,0,0,.17-.11.4.4,0,0,0,.1-.18c.11-.26-.11-.73-.53-1.13s-.92-.58-1.17-.45A.42.42,0,0,0,327.66,73.62Z" style="fill:#f0f0f0"></path><path d="M327.89,74.07c.13-.14.48,0,.77.24s.42.61.29.75-.24.08-.42,0c.22,0,.34-.13.23-.37a1.44,1.44,0,0,0-.6-.54c-.16-.06-.28-.06-.32.07A.25.25,0,0,1,327.89,74.07Z" style="fill:#e0e0e0"></path><path d="M334.5,74a6.43,6.43,0,0,1,2.87,1c-.52-.08-1.17.54-1.79,2.06-.51,1.24-1,2.45-1.26,3.33-.05.13-.09.25-.13.37l-.75-.26c0-.11.08-.24.13-.37.29-.88.69-2.11,1.06-3.4C335.08,75.11,335,74.22,334.5,74Z" style="fill:#f0f0f0"></path><path d="M333.6,80a3.06,3.06,0,0,1,.38.1,2.57,2.57,0,0,1,.37.16l-.16.47-.75-.26Z" style="fill:#e0e0e0"></path><path d="M331.83,80.67a.89.89,0,0,0,0,.32.2.2,0,0,0,0,.07v0a.49.49,0,0,0,0,.11s0,0,0,0l0,.07h0a2.68,2.68,0,0,0,1.34.91,2.59,2.59,0,0,0,1.6.1h0l.08,0,.05,0,.09-.06,0,0,0,0a1,1,0,0,0,.17-.27.82.82,0,0,0,0-.31c0-.43-.6-1-1.45-1.25a1.94,1.94,0,0,0-1.91.09A.76.76,0,0,0,331.83,80.67Z" style="fill:#f0f0f0"></path><path d="M332.44,81.16c.09-.28.64-.34,1.22-.14s1,.59.88.86-.29.26-.6.26c.34-.09.39-.4.09-.65a2.09,2.09,0,0,0-1.17-.39c-.26,0-.42.09-.4.29A.27.27,0,0,1,332.44,81.16Z" style="fill:#e0e0e0"></path><path d="M339.79,75.25A9.92,9.92,0,0,1,343,75c-.53.11-.92.7-.91,1.86,0,1,.06,1.85.11,2.5a2.46,2.46,0,0,0,0,.28l-.83.07a2.65,2.65,0,0,0,0-.27c-.06-.65-.17-1.56-.33-2.49C340.81,75.79,340.33,75.27,339.79,75.25Z" style="fill:#f0f0f0"></path><path d="M341.32,79.31l.41-.06h.42c0,.14,0,.26,0,.38l-.83.07C341.34,79.57,341.33,79.45,341.32,79.31Z" style="fill:#e0e0e0"></path><path d="M340.45,80.37a.52.52,0,0,0,.07.22l0,0h0l.05.06,0,0,.05,0h0a2,2,0,0,0,1.16.21,1.87,1.87,0,0,0,1.11-.41h0l0,0,0,0a.21.21,0,0,0,0-.06v0s0,0,0,0a.45.45,0,0,0,0-.23.47.47,0,0,0-.06-.21c-.14-.29-.7-.47-1.35-.41s-1.17.33-1.25.63A.41.41,0,0,0,340.45,80.37Z" style="fill:#f0f0f0"></path><path d="M341,80.51c0-.21.33-.41.78-.45s.83.1.84.31-.11.27-.32.35c.2-.15.14-.38-.13-.46a1.57,1.57,0,0,0-.91.09c-.16.09-.25.19-.18.31A.19.19,0,0,1,341,80.51Z" style="fill:#e0e0e0"></path><path d="M345.62,74.14a20,20,0,0,1,2-1.13c-.27.17-.57.51-.49.82a3.35,3.35,0,0,0,.26.68l0,.07-.43.24a.25.25,0,0,0,0-.07,2.19,2.19,0,0,0-.45-.56A.81.81,0,0,0,345.62,74.14Z" style="fill:#f0f0f0"></path><path d="M346.94,74.66l.22-.13.22-.11c0,.06.06.11.08.16l-.43.24A.89.89,0,0,0,346.94,74.66Z" style="fill:#e0e0e0"></path><path d="M346.6,75.68a.37.37,0,0,0,.12.13l0,0h0l.06,0h.08a1.75,1.75,0,0,0,1.54-.85h0a.17.17,0,0,0,0-.05s0,0,0,0,0,0,0-.06v-.06a.55.55,0,0,0-.05-.17.37.37,0,0,0-.12-.13c-.18-.16-.63-.11-1.07.13s-.73.6-.69.84A.34.34,0,0,0,346.6,75.68Z" style="fill:#f0f0f0"></path><path d="M347,75.61c-.08-.15.1-.4.41-.57s.61-.19.69,0,0,.22-.12.35c.1-.18,0-.32-.23-.29a1.2,1.2,0,0,0-.61.35c-.09.11-.12.21,0,.28A.19.19,0,0,1,347,75.61Z" style="fill:#e0e0e0"></path><path d="M350,71a7.15,7.15,0,0,1,1.79-2.46c-.24.46-.35.89.78,1.82.91.75.95.83,1.61,1.31l.28.21-.46.64-.28-.2c-.67-.48-.74-.51-1.74-1.15C350.78,70.4,350.4,70.64,350,71Z" style="fill:#f0f0f0"></path><path d="M353.63,72.24a2,2,0,0,1,.2-.34c.09-.11.17-.21.26-.3l.4.29-.46.64Z" style="fill:#e0e0e0"></path><path d="M353.8,73.86a.6.6,0,0,0,.25.1h.23l.07,0h0a2.23,2.23,0,0,0,1.09-.88,2.3,2.3,0,0,0,.5-1.31h0a.22.22,0,0,1,0-.08s0,0,0,0l0-.1v0s0,0,0,0a.76.76,0,0,0-.19-.21.74.74,0,0,0-.24-.11c-.36-.1-.95.27-1.41.89s-.61,1.31-.41,1.62A1.12,1.12,0,0,0,353.8,73.86Z" style="fill:#f0f0f0"></path><path d="M354.35,73.47c-.2-.15-.11-.62.2-1s.74-.66.94-.51.14.31.06.56c0-.3-.23-.42-.51-.24a1.94,1.94,0,0,0-.63.88c-.05.21,0,.37.14.41A.29.29,0,0,1,354.35,73.47Z" style="fill:#e0e0e0"></path><path d="M352.84,66a6.79,6.79,0,0,1,.53-2.51c0,.44.44.9,1.53,1.21a8.27,8.27,0,0,0,1,.3l.26.05-.14.66-.26-.06a7.85,7.85,0,0,0-1-.13C353.6,65.35,353,65.58,352.84,66Z" style="fill:#f0f0f0"></path><path d="M355.6,65.61a1.88,1.88,0,0,1,0-.33,1.59,1.59,0,0,1,.09-.33l.41.09-.14.66Z" style="fill:#e0e0e0"></path><path d="M356.22,66.56a.34.34,0,0,0,.2,0h.06l.06,0,0,0,0,0h0a1.62,1.62,0,0,0,.46-.88,1.69,1.69,0,0,0-.06-1h0l0,0a0,0,0,0,0,0,0,.21.21,0,0,0,0-.06h0l0,0-.17-.08a.6.6,0,0,0-.19,0c-.27,0-.55.45-.66,1s0,1,.2,1.17A.51.51,0,0,0,356.22,66.56Z" style="fill:#f0f0f0"></path><path d="M356.47,66.16c-.18,0-.26-.37-.18-.75s.29-.64.47-.6.18.16.2.35c-.08-.2-.27-.21-.41,0a1.33,1.33,0,0,0-.15.75c0,.16.09.25.21.22A.23.23,0,0,1,356.47,66.16Z" style="fill:#e0e0e0"></path><path d="M353.44,60.73a6.44,6.44,0,0,1-.63-3c.2.48,1.07.72,2.68.47,1.33-.21,2.59-.45,3.5-.64l.39-.08.16.77-.38.09c-.91.2-2.16.49-3.46.84C354.12,59.64,353.43,60.21,353.44,60.73Z" style="fill:#f0f0f0"></path><path d="M359.05,58.39c0-.12-.08-.25-.11-.38a2.91,2.91,0,0,1-.05-.4l.49-.1.16.77Z" style="fill:#e0e0e0"></path><path d="M360.43,59.41a.66.66,0,0,0,.27-.12l.05,0h0l.06-.08,0,0a.43.43,0,0,1,0-.07h0a2.32,2.32,0,0,0,.08-1.47,2.38,2.38,0,0,0-.67-1.31h0l-.07,0,0,0-.09,0H360a.57.57,0,0,0-.29,0,.71.71,0,0,0-.25.11c-.33.21-.47.93-.3,1.73s.59,1.39,1,1.45A.66.66,0,0,0,360.43,59.41Z" style="fill:#f0f0f0"></path><path d="M360.53,58.71c-.27.06-.57-.34-.69-.89s0-1,.26-1.1.34.11.48.35c-.22-.23-.49-.12-.55.23a2,2,0,0,0,.25,1.11c.13.19.27.28.42.17A.29.29,0,0,1,360.53,58.71Z" style="fill:#e0e0e0"></path><path d="M351.76,55.39a11,11,0,0,1-1.7-2.34c.33.37.89.44,1.63,0s1.16-.73,1.55-1l.17-.11.44.6-.16.13c-.39.28-.92.7-1.44,1.16S351.51,55,351.76,55.39Z" style="fill:#f0f0f0"></path><path d="M353.59,52.74l-.24-.3c-.08-.11-.14-.21-.2-.31l.26-.19.44.6Z" style="fill:#e0e0e0"></path><path d="M354.77,53a.37.37,0,0,0,.13-.15l0,0v0a.14.14,0,0,0,0-.07,0,0,0,0,0,0,0,.13.13,0,0,1,0-.06h0a2,2,0,0,0-1.2-1.65h-.23a.48.48,0,0,0-.19.09.43.43,0,0,0-.13.14c-.16.24,0,.75.31,1.22s.78.74,1.05.67A.48.48,0,0,0,354.77,53Z" style="fill:#f0f0f0"></path><path d="M354.62,52.47c-.15.11-.47-.06-.7-.39s-.31-.67-.15-.79.25,0,.41.09c-.21-.08-.35.07-.29.31a1.34,1.34,0,0,0,.49.65c.14.09.26.11.32,0A.22.22,0,0,1,354.62,52.47Z" style="fill:#e0e0e0"></path><path d="M348.05,51.3a5.14,5.14,0,0,1-2.64-1.52c.51.16,1.38-.51,2.49-2.27.27-.42,1-1.31,1.55-2.33l.25-.43.69.39-.25.44c-.59,1-1.21,2.12-1.37,2.43C347.8,49.85,347.66,50.94,348.05,51.3Z" style="fill:#f0f0f0"></path><path d="M350.14,45.58a3,3,0,0,1-.36-.18,2.7,2.7,0,0,1-.33-.22l.25-.43.69.39Z" style="fill:#e0e0e0"></path><path d="M352,45.24a.71.71,0,0,0,.1-.3v-.1a.41.41,0,0,0,0-.11s0,0,0,0a.29.29,0,0,0,0-.09h0A3.06,3.06,0,0,0,349.35,43h-.09l-.05,0-.1,0,0,0-.06,0a.7.7,0,0,0-.21.24.75.75,0,0,0-.09.29c-.08.42.41,1.06,1.18,1.5a1.94,1.94,0,0,0,1.9.28A.74.74,0,0,0,352,45.24Z" style="fill:#f0f0f0"></path><path d="M351.5,44.65c-.15.25-.7.21-1.23-.1s-.84-.76-.7-1,.34-.2.64-.14c-.35,0-.46.32-.21.62a2.13,2.13,0,0,0,1.08.61c.25,0,.43,0,.44-.21A.29.29,0,0,1,351.5,44.65Z" style="fill:#e0e0e0"></path><path d="M343.21,49.13A7.69,7.69,0,0,1,340,48.8c.55,0,1.06-.71,1.31-2.19.2-1.21.16-1.09.25-1.94,0-.12,0-.24,0-.35l.83.08c0,.11,0,.23,0,.36-.08.85,0,.73,0,2C342.33,48.22,342.68,49,343.21,49.13Z" style="fill:#f0f0f0"></path><path d="M342.43,44.78a3.1,3.1,0,0,1-.42,0c-.14,0-.28,0-.41-.06s0-.26,0-.38l.83.08C342.46,44.52,342.44,44.65,342.43,44.78Z" style="fill:#e0e0e0"></path><path d="M343.48,43.91a.57.57,0,0,0,0-.23s0,0,0,0v0a.25.25,0,0,0,0-.07l0,0,0,0h0a1.9,1.9,0,0,0-1.1-.43,1.92,1.92,0,0,0-1.17.19h0l-.05,0,0,0s0,0-.06.05v0l0,0a.44.44,0,0,0-.07.22.58.58,0,0,0,0,.23c.08.3.59.58,1.24.65s1.21-.1,1.35-.38A.4.4,0,0,0,343.48,43.91Z" style="fill:#f0f0f0"></path><path d="M343,43.66c0,.21-.4.35-.85.3s-.79-.26-.77-.47.16-.23.38-.28c-.22.12-.21.35,0,.48a1.51,1.51,0,0,0,.9.08c.18-.05.29-.13.24-.27A.2.2,0,0,1,343,43.66Z" style="fill:#e0e0e0"></path><path d="M337.23,49.05a20.11,20.11,0,0,1-2.22.72c.3-.11.66-.39.64-.71a3,3,0,0,0-.13-.72.14.14,0,0,0,0-.07l.47-.16,0,.08a2.34,2.34,0,0,0,.34.63A.82.82,0,0,0,337.23,49.05Z" style="fill:#f0f0f0"></path><path d="M336,48.29l-.24.08-.23.07-.06-.17.47-.16Z" style="fill:#e0e0e0"></path><path d="M336.56,47.35a.38.38,0,0,0-.09-.15l0,0h0l-.05,0h0l-.05,0h0a1.52,1.52,0,0,0-.91,0,1.46,1.46,0,0,0-.76.5h0s0,0,0,0v0l0,.06v.06a.37.37,0,0,0,0,.18.6.6,0,0,0,.09.15c.15.19.6.22,1.08.07s.83-.45.84-.7A.52.52,0,0,0,336.56,47.35Z" style="fill:#f0f0f0"></path><path d="M336.12,47.34c.05.16-.18.37-.51.48s-.64.07-.69-.09,0-.22.19-.32c-.13.15-.05.31.17.32a1.21,1.21,0,0,0,.67-.22c.11-.1.16-.19.08-.27A.17.17,0,0,1,336.12,47.34Z" style="fill:#e0e0e0"></path><path d="M350.35,53.29a13.35,13.35,0,1,1-18.84-1.35A13.35,13.35,0,0,1,350.35,53.29Z" style="fill:#f0f0f0"></path><path d="M350.35,53.29a13.35,13.35,0,1,1-18.84-1.35A13.35,13.35,0,0,1,350.35,53.29Z" style="fill:#f0f0f0"></path><path d="M352.7,57.2c1.33,3.73-.43,13.66-9.77,16.27S327.85,67.29,327.06,64A13.35,13.35,0,1,0,352.7,57.2Z" style="fill:#e0e0e0"></path><path d="M338.3,69.79c1,.08,1.77.75,1.71,1.51a1.64,1.64,0,0,1-1.92,1.22c-1-.08-1.77-.75-1.71-1.51A1.64,1.64,0,0,1,338.3,69.79Z" style="fill:#e0e0e0"></path><path d="M336.94,71.51c-.31-.36.15-1,1.08-1,.74,0,1.41.4,1.51.82a.57.57,0,0,1-.45.68c.25-.2.26-.52-.08-.8a1.78,1.78,0,0,0-1.61-.28C337.05,71.05,336.88,71.29,336.94,71.51Z" style="opacity:0.1"></path><path d="M344.77,55.07a1.43,1.43,0,1,1,1-2.56,1.43,1.43,0,1,1-1,2.56Z" style="fill:#e0e0e0"></path><path d="M346.57,53.8c.19.43-.43.94-1.32.67-.71-.22-1.24-.78-1.22-1.21a.57.57,0,0,1,.61-.53c-.29.12-.39.43-.14.8a1.77,1.77,0,0,0,1.47.71C346.33,54.22,346.56,54,346.57,53.8Z" style="opacity:0.1"></path><path d="M336.08,61.58A1.39,1.39,0,0,1,335,63.16c-.64,0-1.18-.64-1.22-1.48a1.39,1.39,0,0,1,1.09-1.58C335.5,60.08,336,60.74,336.08,61.58Z" style="fill:#e0e0e0"></path><path d="M334.5,60.62c.27-.3.87,0,.95.8a1.29,1.29,0,0,1-.53,1.34.48.48,0,0,1-.61-.3c.19.18.46.16.66-.15a1.5,1.5,0,0,0,.07-1.38C334.9,60.66,334.68,60.55,334.5,60.62Z" style="opacity:0.1"></path><path d="M343,64.57a1.43,1.43,0,1,1-.16,2.28A1.64,1.64,0,0,1,343,64.57Z" style="fill:#e0e0e0"></path><path d="M343.62,66.7c-.48,0-.74-.73-.18-1.48a1.61,1.61,0,0,1,1.55-.73.57.57,0,0,1,.29.76c0-.31-.27-.51-.7-.4A1.79,1.79,0,0,0,343.4,66C343.3,66.33,343.4,66.61,343.62,66.7Z" style="opacity:0.1"></path><path d="M331.8,62.63c0,1-.63,1.81-1.39,1.8s-1.36-.83-1.35-1.84a1.43,1.43,0,1,1,2.74,0Z" style="fill:#e0e0e0"></path><path d="M330,61.38c.34-.34,1,.08,1.08,1a1.57,1.57,0,0,1-.71,1.56.58.58,0,0,1-.71-.4c.21.23.54.23.79-.14a1.77,1.77,0,0,0,.17-1.63C330.46,61.46,330.21,61.31,330,61.38Z" style="opacity:0.1"></path><path d="M343.47,59.32a1.45,1.45,0,0,1,.6-1.92c.63-.23,1.38.26,1.69,1.1a1.46,1.46,0,0,1-.6,1.93C344.53,60.66,343.78,60.16,343.47,59.32Z" style="fill:#e0e0e0"></path><path d="M345.36,59.79c-.18.39-.88.26-1.21-.5a1.39,1.39,0,0,1,.11-1.51.51.51,0,0,1,.71.11c-.25-.13-.51,0-.61.36a1.55,1.55,0,0,0,.36,1.4C345,59.88,345.2,59.92,345.36,59.79Z" style="opacity:0.1"></path><path d="M339,54.59c-1.32.46-2.66,0-3-1s.43-2.16,1.75-2.63,2.66,0,3,1S340.26,54.13,339,54.59Z" style="fill:#e0e0e0"></path><path d="M339.71,51.64c.6.28.38,1.38-.8,1.89a2.19,2.19,0,0,1-2.37-.19.79.79,0,0,1,.18-1.11c-.2.38,0,.8.56,1a2.44,2.44,0,0,0,2.2-.55C339.83,52.29,339.91,51.89,339.71,51.64Z" style="opacity:0.1"></path><path d="M344.38,69.85a1.06,1.06,0,1,1-.63,1.58A1.23,1.23,0,0,1,344.38,69.85Z" style="fill:#e0e0e0"></path><path d="M344.31,71.49c-.34-.08-.36-.69.21-1.09a1.19,1.19,0,0,1,1.27-.17.42.42,0,0,1,0,.61c.07-.22-.07-.43-.4-.45a1.35,1.35,0,0,0-1.1.54C344.17,71.16,344.18,71.38,344.31,71.49Z" style="opacity:0.1"></path><path d="M348,64.49a1.45,1.45,0,1,1,.71,2.21A1.68,1.68,0,0,1,348,64.49Z" style="fill:#e0e0e0"></path><path d="M349.36,66.28c-.44.21-1-.41-.72-1.33.2-.72.75-1.28,1.19-1.27a.58.58,0,0,1,.56.61c-.13-.29-.45-.39-.81-.12a1.83,1.83,0,0,0-.69,1.52C348.93,66.05,349.13,66.28,349.36,66.28Z" style="opacity:0.1"></path><path d="M348.83,58.82a.93.93,0,1,1,1.32.69A1.09,1.09,0,0,1,348.83,58.82Z" style="fill:#e0e0e0"></path><path d="M350.25,59c-.1.29-.62.25-.92-.28a1,1,0,0,1,0-1.12.37.37,0,0,1,.53,0c-.19-.08-.38,0-.42.31a1.17,1.17,0,0,0,.37,1A.36.36,0,0,0,350.25,59Z" style="opacity:0.1"></path><path d="M332.53,56.92a.93.93,0,1,1-.15-1.48A1.08,1.08,0,0,1,332.53,56.92Z" style="fill:#e0e0e0"></path><path d="M331.92,55.62c.3-.07.56.39.28.93s-.64.7-.92.64a.37.37,0,0,1-.26-.46c0,.2.22.3.49.18a1.16,1.16,0,0,0,.63-.86C332.16,55.82,332.07,55.65,331.92,55.62Z" style="opacity:0.1"></path><path d="M337.85,65.61c.64.12,1.08.62,1,1.1a1.06,1.06,0,0,1-1.34.65c-.64-.12-1.09-.62-1-1.1A1.06,1.06,0,0,1,337.85,65.61Z" style="fill:#e0e0e0"></path><path d="M336.83,66.62c-.17-.25.18-.65.78-.57s.88.36.92.64a.36.36,0,0,1-.34.4c.17-.1.21-.31,0-.52a1.13,1.13,0,0,0-1-.3C336.94,66.33,336.82,66.47,336.83,66.62Z" style="opacity:0.1"></path><path d="M338.88,57.8a.93.93,0,1,1,.77-1.27C339.84,57,339.49,57.55,338.88,57.8Z" style="fill:#e0e0e0"></path><path d="M339.18,56.4c.29.12.21.64-.34.9a1,1,0,0,1-1.12,0,.37.37,0,0,1,.07-.52c-.09.18,0,.37.28.44a1.15,1.15,0,0,0,1-.31C339.25,56.7,339.28,56.51,339.18,56.4Z" style="opacity:0.1"></path><path d="M332.64,67.82a1.07,1.07,0,0,1,.07,1.48,1.05,1.05,0,0,1-1.44-.34.93.93,0,1,1,1.37-1.14Z" style="fill:#e0e0e0"></path><path d="M331.21,68c0-.31.55-.4,1,0a1,1,0,0,1,.3,1.08.37.37,0,0,1-.51.1c.2,0,.36-.12.33-.41a1.15,1.15,0,0,0-.61-.87C331.48,67.8,331.29,67.84,331.21,68Z" style="opacity:0.1"></path><path d="M341.77,61a1.82,1.82,0,1,1-2.14-1A1.68,1.68,0,0,1,341.77,61Z" style="fill:#e0e0e0"></path><path d="M338.79,61.25c-.16.54.3,1.18,1.15,1.23s1.77-.91,1.36-1.58A1.37,1.37,0,0,1,340.06,62,1,1,0,0,1,338.79,61.25Z" style="opacity:0.1"></path></g></g><g id="freepik--Character--inject-63"><g id="freepik--character--inject-63"><g id="freepik--Bottom--inject-63"><path d="M382.27,361c-.21-5.23-3.23-58.42-3.23-58.42l26.5,19.09c-4.13,30.19-5.87,39.41-6.16,44.43h0a4.79,4.79,0,0,1,.09,1.3c-.26,6-7.48,8.94-13.17,12.73A103.9,103.9,0,0,1,371,388.88c-4.1,1.78-12.27,1.67-13.18-.82,6.92-4.65,14.93-9.72,20.5-15.11C381,370.37,382.53,367.28,382.27,361Z" style="fill:#ffa8a7"></path><path d="M349.73,394.16c-.32,0-.94,3.59.75,5.19,1.95,1.84,7.78,5,15.66,4.22s12.22-3.07,15.46-5.63,7.78-6.17,11.36-6.84c3.32-.62,7-2,8.05-3s1.13-5.61,1.13-5.61Z" style="fill:#263238"></path><path d="M399.48,364.64a1.09,1.09,0,0,1,1,1.06c.19,1.28.42,5,.86,7.1.61,2.92,1.09,8.92.57,11.26s-6,3.79-9.44,5-7.72,3.89-11.4,6.75-11.67,5.78-16.78,5.67c-7.81-.16-12.78-2.49-14.23-5.4-1.8-3.6-1.11-6.09,8-10a109.07,109.07,0,0,0,10.18-5.61,30,30,0,0,0,11.81-13.61,3.47,3.47,0,0,1,1.36-1.86,2.82,2.82,0,0,1,1.75-.09c1.48.26,5.78,1,7.12,1.67,1.18.63,2.86,1.37,2.78,2.94a5.48,5.48,0,0,1-.4,1.58c-.12.31-.22.74.05.94s.6,0,.84-.21a22.3,22.3,0,0,0,2.53-2.87,9.46,9.46,0,0,1,1.48-1.42,13.64,13.64,0,0,0,1.57-.95S399.42,365.37,399.48,364.64Z" style="fill:#37474f"></path><path d="M357.84,386.08c11.27,1.2,16,8.62,14.55,14a26.19,26.19,0,0,1-8.08,1.42c-7.81-.16-13.1-2.5-14.55-5.41C348.06,392.68,349.71,388.89,357.84,386.08Z" style="fill:#fafafa"></path><path d="M373.18,387.72a.6.6,0,0,0,.36-.12.57.57,0,0,0,.1-.79,13.13,13.13,0,0,0-10.05-4.46.56.56,0,0,0-.52.6.55.55,0,0,0,.59.52,12.21,12.21,0,0,1,9.1,4A.58.58,0,0,0,373.18,387.72Z" style="fill:#f0f0f0"></path><path d="M377.74,385a.57.57,0,0,0,.46-.91,13.17,13.17,0,0,0-10.06-4.46.56.56,0,0,0-.51.6.55.55,0,0,0,.59.52c3.85-.28,7.91,2.43,9.1,4A.56.56,0,0,0,377.74,385Z" style="fill:#f0f0f0"></path><path d="M382.24,381.45a.57.57,0,0,0,.46-.91,13.18,13.18,0,0,0-10.06-4.46.56.56,0,0,0-.51.6.55.55,0,0,0,.59.52c3.84-.28,7.91,2.43,9.1,4A.56.56,0,0,0,382.24,381.45Z" style="fill:#f0f0f0"></path><path d="M386.69,377.91a.53.53,0,0,0,.34-.11.56.56,0,0,0,.12-.78c-2-2.86-6.87-4.87-11-4.56a.56.56,0,0,0-.52.6.55.55,0,0,0,.59.52c3.71-.27,8.21,1.57,10,4.1A.54.54,0,0,0,386.69,377.91Z" style="fill:#f0f0f0"></path><path d="M430.27,319l27.92-4.67c.37,16.55-.82,38.63-1.36,53.89-.11,2.92,1.15,22.69.19,28.74-1.45,9.09-13.66,8.25-14.56,2.86s-1.31-28.32-1.46-30.7c-.37-10-5.7-26.79-9.31-44.57C431.51,323.64,430.44,319.81,430.27,319Z" style="fill:#ffa8a7"></path><path d="M438.06,403.68c0,5.32.7,8.88,2.62,12.11s5.88,4.44,10,3.76,9.51-2.8,11-7.3,1.44-7.65.84-12.61Z" style="fill:#263238"></path><path d="M456.89,366.49c1.67.22,1.61,7.14,2.1,14.31.53,7.69,2.9,11,3.41,17.31.59,7.2,0,10.37-3.18,14.53s-13.46,7.82-18,1.34c-3.71-5.28-3.5-10.88-2.66-18,.87-7.35,1.55-12.52,1.58-18.14,0-5.37-.79-10.39.71-10.9,0,.79.1,1.8.17,2.58.05.59,0,3.5,1,3.58a9.62,9.62,0,0,0,.15-2,2.19,2.19,0,0,1,.58-1.7,6.44,6.44,0,0,1,2.66-.82c1.67-.19,3.34-.36,5-.39.84,0,1.68,0,2.52.05a7.43,7.43,0,0,1,2.1.39,1.39,1.39,0,0,1,.86.78,2,2,0,0,1,0,.82,4.94,4.94,0,0,0,.11,1.48c.05.21.19.48.44.44a.41.41,0,0,0,.3-.41c.06-.87,0-1.5,0-2.51,0-.46,0-.9.07-1.37S456.89,367,456.89,366.49Z" style="fill:#37474f"></path><path d="M462.59,402.27c0,4.46-.49,7.48-2.94,10.73-3.12,4.16-14.27,7.79-18.81,1.32-2.26-3.23-2.68-6.9-2.77-10.64C441.35,399.08,458.18,397.94,462.59,402.27Z" style="fill:#fafafa"></path><path d="M442.88,396.16a.78.78,0,0,0,.21,0,27.64,27.64,0,0,1,14.56-.48.64.64,0,0,0,.77-.37.55.55,0,0,0-.42-.69,28.58,28.58,0,0,0-15.38.52.52.52,0,0,0-.34.71A.64.64,0,0,0,442.88,396.16Z" style="fill:#f0f0f0"></path><path d="M457.59,390.29a.65.65,0,0,0,.56-.34.55.55,0,0,0-.35-.72c-7.37-2.68-15,.26-15.34.39a.52.52,0,0,0-.31.73.67.67,0,0,0,.82.27c.07,0,7.51-2.87,14.36-.37A.82.82,0,0,0,457.59,390.29Z" style="fill:#f0f0f0"></path><path d="M457.5,385.24a.61.61,0,0,0,.54-.33.52.52,0,0,0-.32-.72,21.6,21.6,0,0,0-15.65.33.51.51,0,0,0-.26.74.65.65,0,0,0,.84.23,20.61,20.61,0,0,1,14.58-.3A.62.62,0,0,0,457.5,385.24Z" style="fill:#f0f0f0"></path><path d="M457.36,379.57a.62.62,0,0,0,.54-.32.53.53,0,0,0-.31-.73c-7.58-3-15.44.33-15.77.48a.51.51,0,0,0-.28.73.66.66,0,0,0,.83.25c.08,0,7.68-3.25,14.71-.46A.69.69,0,0,0,457.36,379.57Z" style="fill:#ebebeb"></path><path d="M448.4,190.48c1.74,31.83,5.68,90.37,5.68,90.37.37,3.71,3.76,20.08,4.11,33.44.56,21.46-.3,36.34-.3,36.34s-11.81,4.4-20.35,1c0,0-10.91-43.17-13.77-57.14-3.39-16.65-11.46-49.3-11.46-49.3l-5.7,44s1.78,15.66,0,28.6c-1.21,8.81-4.51,31.91-4.51,31.91s-11.36,3.64-20.65.68c0,0-3.73-57.41-4.28-65.53s-2.39-49.83-.4-101.09Z" style="fill:#37474f"></path><path d="M412.31,245.2l-4.75-28.49a25.6,25.6,0,0,1-16-6.83s.74,6.56,13.45,10.77l4.35,23.65-2.79,44.88Z" style="fill:#263238"></path></g><g id="freepik--Top--inject-63"><path d="M386.45,97.31c-9.2,1.07-13,7.73-18.09,18.13-4.07,8.28-12,27-12,27s-24.92-6.28-29.36-9.08c-3-1.93-2.48-3.16-7.51-6.41-3.54-2.29-7.3-3.37-9.51-5.64-1.76-1.79-4.53,1.07-1.74,4.9a21.39,21.39,0,0,0,3,3,16.69,16.69,0,0,1-5.22-2c-4-2.86-5.76-6.49-10.68-7.08-2.08-.24-2.49,1.2-1.72,2.8a2.51,2.51,0,0,0-1.19,3.53c-1.2.34-1.29,2.74-.84,3.43-.61.88-1.64,3.48,2.9,8.5a44.73,44.73,0,0,0,7.75,6.46,95.38,95.38,0,0,0,11,2.69,46.46,46.46,0,0,1,12,3.71c5.5,2.3,19.4,9.47,31.73,14,10.25,3.81,13.14-2,18-11.16,3.21-6,10.71-25.95,10.71-25.95C389.51,116.17,390,104.67,386.45,97.31Z" style="fill:#ffa8a7"></path><path d="M307.81,136.92c6.08-2.25,12.76.41,14.77,5.34a7.35,7.35,0,0,0-4.46-6.71C315.64,134.34,311,134.66,307.81,136.92Z" style="fill:#f28f8f"></path><path d="M385.68,97.31c-8.65,1.8-10.61,3.74-16.9,16.45-6.18,12.49-12.91,28-12.91,28l-16.13-3.86s.93,3-.93,9.56-5.73,8.51-5.73,8.51,12.44,6.32,22.27,9.9,12,1.86,15.12-2.69,17.07-36.78,17.07-36.78S393.07,106.9,385.68,97.31Z" style="fill:#455a64"></path><path d="M340.62,138.12l-6.57-2a19.63,19.63,0,0,1-.37,8.92c-1.91,6.67-5.31,8.75-5.31,8.75l6.57,3.25S342.21,148.74,340.62,138.12Z" style="fill:#37474f"></path><path d="M380.56,119.57c1.47-10.64,6.28-25.29,22.76-25.94L421.18,95c5.24,1.36,24.78,7.43,24.78,7.43l1.2,42.48s1.3,27.24.9,45c-15.23,9.66-50.26,13.14-71.08-2.65C376.36,172.6,379.11,130.1,380.56,119.57Z" style="fill:#f0f0f0"></path><path d="M387.76,57.06c-2.72-6.15-.14-14.35,3.05-18.21,4.62-5.59,11.84-8,22.75-7.41,8.29.46,16.46,3.86,18.06,12.36,6.68,2,6,12.9,4.36,17.73-3.31,9.82-9.87,18.38-10,23.39Z" style="fill:#263238"></path><path d="M387.9,80.11c1.34,4.72,4.1,8.17,8.47,8.83a37.24,37.24,0,0,0,6.91,0v6.35c-7.3,10.44,15.42,11.29,23.22-.12l-.2-19.45s2.69,3,7.09.13A9.63,9.63,0,0,0,436.31,64c-2.21-4.6-6.57-2.66-7.92-1.26s-2.89,4.06-4,3.7a4.07,4.07,0,0,1-2.73-2.76,24.55,24.55,0,0,1-1.49-8.93,10,10,0,0,1-3.11-2.41c-1.89-2.07-2.06-4.58-2.16-6.86-9.47-2.9-22.14-1.26-26.05,1.8-2.24,4-2.22,13.23-2.28,18.4C386.5,71.51,386.78,76.16,387.9,80.11Z" style="fill:#ffa8a7"></path><path d="M403.28,88.93c4.84-.3,14.55-2.62,17.13-5.33s3.64-8.25,3.64-8.25-.34,7-2.33,10.07-7,4.46-10.11,5.25A75.89,75.89,0,0,1,403.32,92Z" style="fill:#f28f8f"></path><path d="M389.9,57l4.52-1.93a2.36,2.36,0,0,0-3.15-1.35A2.59,2.59,0,0,0,389.9,57Z" style="fill:#263238"></path><path d="M407.41,55.24l4.36,2.27a2.36,2.36,0,0,0-.95-3.29A2.59,2.59,0,0,0,407.41,55.24Z" style="fill:#263238"></path><path d="M390.69,61a2,2,0,1,0,2-2.09A2,2,0,0,0,390.69,61Z" style="fill:#263238"></path><path d="M406.09,61.58a2,2,0,0,0,2,2.06,2.08,2.08,0,1,0-2-2.06Z" style="fill:#263238"></path><path d="M401.78,57.86l-.52,14.86-7.92-1.42C396,66,399.37,58.48,401.78,57.86Z" style="fill:#f28f8f"></path><path d="M407.17,74.8a3.58,3.58,0,1,1-6.61,2.75Z" style="fill:#b16668"></path><path d="M406.6,76.72a3.47,3.47,0,0,0-3.42,3,3.5,3.5,0,0,0,2.06-.2,3.6,3.6,0,0,0,2.14-2.67A4,4,0,0,0,406.6,76.72Z" style="fill:#f28f8f"></path><path d="M376.54,134.26c1.94-17.82,4.2-30.57,9.14-36.95,0,0,4.3-1.32,17.64-4.8v1.12A19.44,19.44,0,0,0,399,98.4c-2.18,3.27-4.77,8.85-7.3,18.46-3.44,13.1-5.17,42.26-5.34,58s-.87,34.51-.87,34.51-8-1.63-10.94-5.66C374.52,203.73,375.08,147.67,376.54,134.26Z" style="fill:#FFC100"></path><path d="M419.89,115.2c1.69-7.18,4.85-18.53,6.42-22.18l20,7.18c5.48,2.53,9.77,6.59,8.39,15.82L448.9,156.6l1.4,46.31c-8.49,13.2-35.53,12.05-35.53,12.05s-.46-13.56.36-49.88C415.59,144.72,417.73,124.35,419.89,115.2Z" style="fill:#FFC100"></path><path d="M418.41,123.25c1.15-10.58,5.43-26.21,8-32.87v-3s9.26,4.78,13.2,7.06a12.18,12.18,0,0,1,5.13,5.21L437.24,97s-3.65,1.35-8.11,6.47S418.41,123.25,418.41,123.25Z" style="fill:#455a64"></path><path d="M403.32,90.38l0,4.9a38.34,38.34,0,0,0-7.81,11.65,117.5,117.5,0,0,0-5.15,16.32,41.78,41.78,0,0,1,.4-18.71c1.67-6.32,3.49-8.47,4.77-9.86a27.35,27.35,0,0,1,7.79-5.75Z" style="fill:#455a64"></path><g id="freepik--Mask--inject-63"><path d="M398.52,63.59c1,.12,2.18,1,4.8,1.73,4.18,1.24,9.89,1.11,13.05,2.9s6.24,6.63,4.53,11.28-3.86,6.81-7.1,8.17-10.61,2.76-13.38,2.6-5.75-.39-9.24-3.68c-3.23-2.89-5.32-10-5.34-15s.07-5.22,2-5.46a43.89,43.89,0,0,0,8.07-2.09A5,5,0,0,1,398.52,63.59Z" style="fill:#fafafa"></path><path d="M419.33,81.53a9.51,9.51,0,0,0-1.05-10.7c-2.75-3.14-6.58-3.2-10.9-3.78A37.86,37.86,0,0,1,399,65.13a3.48,3.48,0,0,0-3.15-.17,32.1,32.1,0,0,1-6.48,1.83c-2.68.37-2.85.64-3.45,1.62h0c.13-1.86.58-2.08,2-2.25a43.89,43.89,0,0,0,8.07-2.09,5,5,0,0,1,2.59-.47c1,.12,2.18,1,4.8,1.73,4.18,1.24,9.89,1.11,13.05,2.9s6.24,6.63,4.53,11.28-3.86,6.81-7.1,8.17-10.61,2.76-13.38,2.6a50.39,50.39,0,0,0,11.29-2.36C416.57,86.14,417.46,84.61,419.33,81.53Z" style="fill:#e0e0e0"></path><path d="M393.69,78.46c0-3.11-.37-6.69.63-8.17.86-2,2.53-4.64,3.05-5.63l.43-1.08a2.15,2.15,0,0,0-.43,0l-.07,0a4,4,0,0,0-.52.13l-.16,0a6.36,6.36,0,0,0-.69.24,43.89,43.89,0,0,1-8.07,2.09c-1.95.24-2,.58-2,5.46s2.11,12.09,5.34,15a12.5,12.5,0,0,0,5.13,3.09C393.89,88.06,393.73,81.59,393.69,78.46Z" style="opacity:0.1"></path><path d="M413.63,83.35c2.92-.5,6-2.39,8.46-4,.19-.13,4.07-2.61,4.22-2.74v-.91c-.32.2-4.32,2.7-4.68,2.94-2.39,1.55-5.37,3.47-8.13,4Z" style="fill:#fafafa"></path><path d="M412.61,83.69l1.54-.33c.26-.06.47-.25.47-.43v-.36c0-.17-.22-.27-.48-.21l-1.54.33c-.26,0-.48.24-.48.42v.36C412.13,83.65,412.34,83.75,412.61,83.69Z" style="fill:#e0e0e0"></path><path d="M415,73.51c2.92-.52,5.28-2.8,7.51-4.69.78-.66,5.2-4.5,5.35-4.64l.43-1.25c-.44.28-5.3,4.39-6.25,5.18-2.2,1.81-4.43,4.16-7.18,4.65Z" style="fill:#fafafa"></path><path d="M414.17,73.76l1.44-.26c.24,0,.44-.23.44-.4v-.36c0-.17-.2-.28-.44-.24l-1.43.26c-.25,0-.45.22-.45.4v.36C413.73,73.7,413.93,73.8,414.17,73.76Z" style="fill:#e0e0e0"></path></g><path d="M469.82,199.58c1.54-7.26,3.89-13.88,5-20.23,2.79-15.61,2.61-16.84,1.26-23.42-3.91-19-6.52-28.82-9.79-38.37-4.43-12.94-5.89-13.16-19.53-16.79-6,5.61-5.69,22.31-1.84,31.38,4.37,13.5,10.14,33.59,10.14,33.59-.24,3.15-.38,23.35-2.54,32.43-.74,3.14-2.89,4.41-4.69,5.48-3.37,2-4.8,6.71-7.31,9.32-2,2-3.49,2.71-3.23,3.36.33.84,1.93,1.37,4.36.74a11.64,11.64,0,0,0,4.5-2.35,14.06,14.06,0,0,1,1.91-1.71c1.08-.61,1.12.46,1,1.24a15.47,15.47,0,0,1-1.23,3.95,50.87,50.87,0,0,1-3,6.35c-1.05,1.88-2.18,2.75-4,5-1.05,1.32-2.52,2.58-3,4.21-.32,1.12-.38,2.92,1,3.38.62.2,1.45-.55,1.95-.87.66-.42,1.39-1.2,2.18-1.34a7,7,0,0,1,2.21.32,7,7,0,0,0,3.42-.34,4,4,0,0,0,1.37-.85c.14-.13.38-.45.56-.52.72-.3,1.82,0,2.59-.25,1.83-.5,2.83-2.25,4.52-3a9.74,9.74,0,0,0,2.67-1.62,13,13,0,0,0,2.95-3.63c2.45-5.13,5-11.83,5.45-17.51C469,205.11,469.36,202.35,469.82,199.58Z" style="fill:#ffa8a7"></path><path d="M446.08,100.2c8.27,2.17,12.67,2.59,16.22,7.12s8,21.65,10,29.14,4.7,20.35,5.11,22.71.32,5.19-.92,12.68c-1.42,8.55-4.34,22.72-4.34,22.72s-2.09.66-9.1-.76a87.36,87.36,0,0,1-9.88-2.43l1.39-25.65-11.76-36.26S436.85,108.15,446.08,100.2Z" style="fill:#455a64"></path><path d="M453.35,186.68l-.37,6.95s2.28,2.94,9.17,4.24c6,1.13,9.68-1.35,9.68-1.35l1.39-6.79a18.77,18.77,0,0,1-10.3.93C455.84,189.51,453.35,186.68,453.35,186.68Z" style="fill:#37474f"></path></g></g></g><g id="freepik--Passport--inject-63"><g id="freepik--passport--inject-63"><path d="M163.29,130.09V358.94a12.25,12.25,0,0,1-5.38,9.5L33.71,442.8l-4.8,2.87V208a2.8,2.8,0,0,1-.68-.3,1.55,1.55,0,0,1-.88-1.33,2.69,2.69,0,0,1,1.56-2.07l129-77.23.32-.18a3.7,3.7,0,0,1,3.33-.34l.11.06.09.06A3.78,3.78,0,0,1,163.29,130.09Z" style="fill:#FFC100"></path><path d="M163.29,130.09V358.94a12.25,12.25,0,0,1-5.38,9.5L33.71,442.8l-4.8,2.87V208a2.8,2.8,0,0,1-.68-.3,1.55,1.55,0,0,1-.88-1.33,2.69,2.69,0,0,1,1.56-2.07l129-77.23.32-.18a3.7,3.7,0,0,1,3.33-.34l.11.06.09.06A3.78,3.78,0,0,1,163.29,130.09Z" style="opacity:0.30000000000000004"></path><polygon points="25.02 208.78 162.63 129.33 169.07 133.03 28.23 210.62 25.02 208.78" style="fill:#f5f5f5"></polygon><path d="M23.65,206.24a3.48,3.48,0,0,0,2,2.91c2.81,1.63,7.55,1.58,10.58-.11h0l134.29-74.82.11-.05a4,4,0,0,1,3.58-.38,1,1,0,0,1,.13.09c1,.55,1.67,1.8,1.67,3.57V366.31a11.76,11.76,0,0,1-5.49,9.32L36.26,450.45c-3,1.68-7.77,1.73-10.58.1a3.49,3.49,0,0,1-2-2.91Z" style="fill:#FFC100"></path><path d="M23.65,206.24a3.48,3.48,0,0,0,2,2.91c2.81,1.63,7.55,1.58,10.58-.11h0l134.29-74.82.11-.05a4,4,0,0,1,3.58-.38,1,1,0,0,1,.13.09c1,.55,1.67,1.8,1.67,3.57V366.31a11.76,11.76,0,0,1-5.49,9.32L36.26,450.45c-3,1.68-7.77,1.73-10.58.1a3.49,3.49,0,0,1-2-2.91Z" style="opacity:0.2"></path><path d="M30.84,210.33a10.38,10.38,0,0,1-5.16-1.18,3.48,3.48,0,0,1-2-2.91v241.4a3.49,3.49,0,0,0,2,2.91,10.38,10.38,0,0,0,5.16,1.19Z" style="opacity:0.30000000000000004"></path><path d="M36.26,209c-3,1.69-7.77,1.74-10.58.11S23,204.76,26,203h0l129.39-77.42c1.49-.89,2.85-1,3.83-.42.13.07.54.3,1,.56s1.09.63,1.41.82a3.7,3.7,0,0,0-3.33.34L28.91,204.27a2.69,2.69,0,0,0-1.56,2.07,1.55,1.55,0,0,0,.88,1.33,2.8,2.8,0,0,0,.68.3,7.1,7.1,0,0,0,5.15-.65l134.12-74.66a3.83,3.83,0,0,1,3.68-.25l.95.56,1.43.82a4,4,0,0,0-3.58.38S36.26,209,36.26,209Z" style="fill:#FFC100"></path><path id="freepik--World--inject-63" d="M69,311.17c0,12.71,3.72,22.51,10.45,27.61s15.7,4.87,25.23-.64,18.49-15.62,25.23-28.5,10.45-27,10.45-39.67-3.71-22.51-10.45-27.6l-.28-.21-.56-.39c-6.62-4.46-15.28-4-24.39,1.23-9.49,5.48-18.42,15.55-25.14,28.35l-.09.15-.46.9C72.55,285,69,298.79,69,311.17Zm31.8-60.53c.79-.58,1.59-1.14,2.38-1.65l.29-.18v21.82a32.86,32.86,0,0,1-4.36,2.06l-.69.25a22.32,22.32,0,0,1-7.16,1.31c.61-2.8,1.32-5.51,2.12-8.1C95.48,259.37,98,254.1,100.8,250.64Zm-9,14.77c-.87,2.79-1.63,5.73-2.29,8.76-.31,0-.62,0-.91-.07l-.63-.1a16.27,16.27,0,0,1-5-1.8,71.6,71.6,0,0,1,13-17.42A70.12,70.12,0,0,0,91.75,265.41Zm14.19,6.77a50.41,50.41,0,0,0,4.63-3.38l.72-.61a64.29,64.29,0,0,0,7.32-7.49,84.13,84.13,0,0,1,2.18,19l-14.85,8.58ZM120.79,283a123.92,123.92,0,0,1-2.18,21.36,22.91,22.91,0,0,0-7.32.95l-.72.23a33.54,33.54,0,0,0-4.63,2V291.58Zm-17.32,25.83A47.5,47.5,0,0,0,98.8,312l-.72.58a60.85,60.85,0,0,0-7.49,7.21,85.68,85.68,0,0,1-2-18.2L103.47,293Zm-14.9-10.53a122.76,122.76,0,0,1,2-20.7,24,24,0,0,0,7.49-1.42l.73-.27a36.23,36.23,0,0,0,4.66-2.21v16Zm20-52.15c2.77.27,5.33,2.58,7.43,6.94a36.47,36.47,0,0,1,1.92,5,60.74,60.74,0,0,1-7,7.26l-.69.59a47.78,47.78,0,0,1-4.26,3.13V247.39l.24-.13C107,246.85,107.77,246.49,108.56,246.16Zm4.86-1.48a16.94,16.94,0,0,1,12.35,1.92,80.85,80.85,0,0,1-4.64,7.34c-.2.28-.4.57-.61.85s-.55.71-.83,1.07a39.4,39.4,0,0,0-2.07-5.39A17.51,17.51,0,0,0,113.42,244.68Zm14,3.09c5.58,4.38,8.77,12.44,9,22.87l-13.76,7.95a88,88,0,0,0-2.34-20.13c.4-.52.82-1,1.21-1.56.21-.28.42-.57.64-.89A90.09,90.09,0,0,0,127.45,247.77Zm9,26.16c-.32,11-3.66,22.78-9,33.18a17.11,17.11,0,0,0-5.23-2.26l-.64-.15c-.4-.08-.81-.11-1.21-.16a128.19,128.19,0,0,0,2.33-22.66Zm-10.7,36.28a70.87,70.87,0,0,1-12.38,16.16,71.59,71.59,0,0,0,4.2-10.63c.77-2.49,1.46-5.1,2.07-7.79.28.05.56.06.83.12l.61.14A16.24,16.24,0,0,1,125.8,310.21ZM108.56,330.5c-.79.59-1.58,1.15-2.37,1.66a2.07,2.07,0,0,0-.25.15V310.59a31.23,31.23,0,0,1,4.26-1.79l.69-.21a21.16,21.16,0,0,1,7-.85c-.57,2.5-1.2,4.94-1.92,7.26C113.89,321.77,111.33,327.05,108.56,330.5ZM100.81,335c-2.77-.26-5.33-2.58-7.43-6.93a36.64,36.64,0,0,1-2.12-5.66,57.53,57.53,0,0,1,7.16-6.95l.69-.55a43.79,43.79,0,0,1,4.36-3v21.82l-.29.16C102.39,334.3,101.59,334.65,100.81,335Zm-4.87,1.48a16.83,16.83,0,0,1-13.08-2.3,79.32,79.32,0,0,1,5.06-7.66l.62-.82c.3-.39.61-.74.92-1.12a38.87,38.87,0,0,0,2.29,6.11A17.26,17.26,0,0,0,95.94,336.46Zm-14.71-3.57c-5-4.33-8-12-8.37-22.21l13.77-7.95A89.6,89.6,0,0,0,88.77,322c-.41.51-.84,1-1.25,1.52l-.65.86A84.86,84.86,0,0,0,81.23,332.89Zm-8.37-25.51c.27-10.28,3.23-21.56,8.4-32a17.49,17.49,0,0,0,5.61,2l.65.1c.41,0,.84,0,1.25.08a128.45,128.45,0,0,0-2.14,21.87Z" style="fill:#FFC100"></path><path d="M63.58,402.85l-3,1.72V382.51l4.7-2.72c2.34-1.34,5-1.94,5,3.92v.56c0,5.88-2.64,8.32-5,9.66l-1.73,1Zm1.86-13c.81-.47,1.84-1.54,1.84-4v-.28c0-2.49-1-2.38-1.84-1.91l-1.86,1.07V391Z" style="fill:#FFC100"></path><path d="M78.28,372.25l3.58,20.05-3.17,1.83-.7-4.35-3.51,2L73.8,397l-3.2,1.85,3.58-24.19Zm-3.23,15.27,2.35-1.36-1.18-7.43Z" style="fill:#FFC100"></path><path d="M82.64,376.3V376a10.65,10.65,0,0,1,5-9.47c3.53-2,5.07-.53,5.07,4.65v.59l-3,1.72c0-2.88-.57-3.88-2.07-3l-.17.1a4.1,4.1,0,0,0-1.89,3.53v.14c0,1.61.42,2.21,2.52,1.43,3.12-1.15,4.7-.43,4.7,3.67v.29c0,4.24-1.82,7.75-5.18,9.69s-5.16.66-5.16-4.66v-.25l3-1.72c0,2.77.74,3.51,2.11,2.71l.17-.09a4.33,4.33,0,0,0,2.06-3.79v-.14c0-1.59-.53-2.16-2.61-1.38C84.11,381.13,82.64,380.28,82.64,376.3Z" style="fill:#FFC100"></path><path d="M94.23,369.6v-.31a10.65,10.65,0,0,1,5-9.48c3.53-2,5.07-.52,5.07,4.66v.59l-3,1.72c0-2.89-.56-3.89-2.07-3l-.17.1a4.09,4.09,0,0,0-1.89,3.52v.14c0,1.62.42,2.22,2.52,1.43,3.12-1.15,4.7-.42,4.7,3.68v.28c0,4.24-1.82,7.76-5.18,9.7s-5.16.66-5.16-4.66v-.25l3-1.72c0,2.77.74,3.51,2.12,2.71l.16-.1a4.31,4.31,0,0,0,2.06-3.79v-.13c0-1.59-.53-2.16-2.61-1.38C95.7,374.44,94.23,373.59,94.23,369.6Z" style="fill:#FFC100"></path><path d="M109.09,376.58l-3,1.71V356.24l4.7-2.72c2.33-1.35,5-1.94,5,3.91V358c0,5.88-2.65,8.31-5,9.66l-1.73,1ZM111,363.63c.8-.47,1.83-1.54,1.83-4v-.29c0-2.48-1-2.37-1.83-1.91l-1.86,1.08v6.22Z" style="fill:#FFC100"></path><path d="M116.77,361.68v-1.13c0-7.64,1.75-11.84,5.46-14s5.47,0,5.47,7.67v1.13c0,7.63-1.74,11.84-5.47,14S116.77,369.31,116.77,361.68Zm5.55,3.67c1.84-1.06,2.35-3.82,2.35-8.23V356c0-4.42-.51-6.58-2.35-5.52l-.17.1c-1.83,1.06-2.37,3.83-2.37,8.24v1.13c0,4.41.54,6.56,2.37,5.5Z" style="fill:#FFC100"></path><path d="M132.42,363.1l-3,1.72V342.76l4.7-2.71c2.33-1.35,5-1.94,5,3.91v.57c0,3.56-1,5.88-2.26,7.44l2.26,7.26-3.22,1.86-2-6.79-1.53.89Zm1.86-12.94c.81-.47,1.84-1.55,1.84-4v-.29c0-2.49-1-2.37-1.84-1.91L132.42,345v6.22Z" style="fill:#FFC100"></path><path d="M146.15,355.18l-3,1.72V338.8l-3.31,1.91v-4l9.61-5.55v4l-3.32,1.92Z" style="fill:#FFC100"></path><path d="M83.27,214.64V236.7l-3,1.72v-9.28l-4.17,2.41v9.27l-3,1.72V220.48l3-1.71v8.82l4.17-2.41v-8.82Z" style="fill:#FFC100"></path><path d="M94.09,208.39v4l-5.79,3.34v4.87l4.87-2.81v4l-4.87,2.81v5.31l5.79-3.34v4l-8.76,5.06V213.45Z" style="fill:#FFC100"></path><path d="M102.76,203.33l3.58,20-3.17,1.83-.7-4.35-3.51,2L98.28,228l-3.2,1.85,3.58-24.18ZM99.53,218.6l2.35-1.36-1.18-7.43Z" style="fill:#FFC100"></path><path d="M107.63,222.63v-22l3-1.72V217l5.29-3.06v4Z" style="fill:#FFC100"></path><path d="M121.43,214.67l-3,1.72v-18.1l-3.31,1.91v-4l9.61-5.55v4l-3.32,1.92Z" style="fill:#FFC100"></path><path d="M136.22,184.07v22.06l-3,1.72v-9.28L129.07,201v9.28l-3,1.71V189.92l3-1.72V197l4.17-2.41v-8.82Z" style="fill:#FFC100"></path><g style="opacity:0.2"><path id="freepik--world--inject-63" d="M69,311.17c0,12.71,3.72,22.51,10.45,27.61s15.7,4.87,25.23-.64,18.49-15.62,25.23-28.5,10.45-27,10.45-39.67-3.71-22.51-10.45-27.6l-.28-.21-.56-.39c-6.62-4.46-15.28-4-24.39,1.23-9.49,5.48-18.42,15.55-25.14,28.35l-.09.15-.46.9C72.55,285,69,298.79,69,311.17Zm31.8-60.53c.79-.58,1.59-1.14,2.38-1.65l.29-.18v21.82a32.86,32.86,0,0,1-4.36,2.06l-.69.25a22.32,22.32,0,0,1-7.16,1.31c.61-2.8,1.32-5.51,2.12-8.1C95.48,259.37,98,254.1,100.8,250.64Zm-9,14.77c-.87,2.79-1.63,5.73-2.29,8.76-.31,0-.62,0-.91-.07l-.63-.1a16.27,16.27,0,0,1-5-1.8,71.6,71.6,0,0,1,13-17.42A70.12,70.12,0,0,0,91.75,265.41Zm14.19,6.77a50.41,50.41,0,0,0,4.63-3.38l.72-.61a64.29,64.29,0,0,0,7.32-7.49,84.13,84.13,0,0,1,2.18,19l-14.85,8.58ZM120.79,283a123.92,123.92,0,0,1-2.18,21.36,22.91,22.91,0,0,0-7.32.95l-.72.23a33.54,33.54,0,0,0-4.63,2V291.58Zm-17.32,25.83A47.5,47.5,0,0,0,98.8,312l-.72.58a60.85,60.85,0,0,0-7.49,7.21,85.68,85.68,0,0,1-2-18.2L103.47,293Zm-14.9-10.53a122.76,122.76,0,0,1,2-20.7,24,24,0,0,0,7.49-1.42l.73-.27a36.23,36.23,0,0,0,4.66-2.21v16Zm20-52.15c2.77.27,5.33,2.58,7.43,6.94a36.47,36.47,0,0,1,1.92,5,60.74,60.74,0,0,1-7,7.26l-.69.59a47.78,47.78,0,0,1-4.26,3.13V247.39l.24-.13C107,246.85,107.77,246.49,108.56,246.16Zm4.86-1.48a16.94,16.94,0,0,1,12.35,1.92,80.85,80.85,0,0,1-4.64,7.34c-.2.28-.4.57-.61.85s-.55.71-.83,1.07a39.4,39.4,0,0,0-2.07-5.39A17.51,17.51,0,0,0,113.42,244.68Zm14,3.09c5.58,4.38,8.77,12.44,9,22.87l-13.76,7.95a88,88,0,0,0-2.34-20.13c.4-.52.82-1,1.21-1.56.21-.28.42-.57.64-.89A90.09,90.09,0,0,0,127.45,247.77Zm9,26.16c-.32,11-3.66,22.78-9,33.18a17.11,17.11,0,0,0-5.23-2.26l-.64-.15c-.4-.08-.81-.11-1.21-.16a128.19,128.19,0,0,0,2.33-22.66Zm-10.7,36.28a70.87,70.87,0,0,1-12.38,16.16,71.59,71.59,0,0,0,4.2-10.63c.77-2.49,1.46-5.1,2.07-7.79.28.05.56.06.83.12l.61.14A16.24,16.24,0,0,1,125.8,310.21ZM108.56,330.5c-.79.59-1.58,1.15-2.37,1.66a2.07,2.07,0,0,0-.25.15V310.59a31.23,31.23,0,0,1,4.26-1.79l.69-.21a21.16,21.16,0,0,1,7-.85c-.57,2.5-1.2,4.94-1.92,7.26C113.89,321.77,111.33,327.05,108.56,330.5ZM100.81,335c-2.77-.26-5.33-2.58-7.43-6.93a36.64,36.64,0,0,1-2.12-5.66,57.53,57.53,0,0,1,7.16-6.95l.69-.55a43.79,43.79,0,0,1,4.36-3v21.82l-.29.16C102.39,334.3,101.59,334.65,100.81,335Zm-4.87,1.48a16.83,16.83,0,0,1-13.08-2.3,79.32,79.32,0,0,1,5.06-7.66l.62-.82c.3-.39.61-.74.92-1.12a38.87,38.87,0,0,0,2.29,6.11A17.26,17.26,0,0,0,95.94,336.46Zm-14.71-3.57c-5-4.33-8-12-8.37-22.21l13.77-7.95A89.6,89.6,0,0,0,88.77,322c-.41.51-.84,1-1.25,1.52l-.65.86A84.86,84.86,0,0,0,81.23,332.89Zm-8.37-25.51c.27-10.28,3.23-21.56,8.4-32a17.49,17.49,0,0,0,5.61,2l.65.1c.41,0,.84,0,1.25.08a128.45,128.45,0,0,0-2.14,21.87Z" style="fill:#fff"></path><path d="M63.58,402.85l-3,1.72V382.51l4.7-2.72c2.34-1.34,5-1.94,5,3.92v.56c0,5.88-2.64,8.32-5,9.66l-1.73,1Zm1.86-13c.81-.47,1.84-1.54,1.84-4v-.28c0-2.49-1-2.38-1.84-1.91l-1.86,1.07V391Z" style="fill:#fff"></path><path d="M78.28,372.25l3.58,20.05-3.17,1.83-.7-4.35-3.51,2L73.8,397l-3.2,1.85,3.58-24.19Zm-3.23,15.27,2.35-1.36-1.18-7.43Z" style="fill:#fff"></path><path d="M82.64,376.3V376a10.65,10.65,0,0,1,5-9.47c3.53-2,5.07-.53,5.07,4.65v.59l-3,1.72c0-2.88-.57-3.88-2.07-3l-.17.1a4.1,4.1,0,0,0-1.89,3.53v.14c0,1.61.42,2.21,2.52,1.43,3.12-1.15,4.7-.43,4.7,3.67v.29c0,4.24-1.82,7.75-5.18,9.69s-5.16.66-5.16-4.66v-.25l3-1.72c0,2.77.74,3.51,2.11,2.71l.17-.09a4.33,4.33,0,0,0,2.06-3.79v-.14c0-1.59-.53-2.16-2.61-1.38C84.11,381.13,82.64,380.28,82.64,376.3Z" style="fill:#fff"></path><path d="M94.23,369.6v-.31a10.65,10.65,0,0,1,5-9.48c3.53-2,5.07-.52,5.07,4.66v.59l-3,1.72c0-2.89-.56-3.89-2.07-3l-.17.1a4.09,4.09,0,0,0-1.89,3.52v.14c0,1.62.42,2.22,2.52,1.43,3.12-1.15,4.7-.42,4.7,3.68v.28c0,4.24-1.82,7.76-5.18,9.7s-5.16.66-5.16-4.66v-.25l3-1.72c0,2.77.74,3.51,2.12,2.71l.16-.1a4.31,4.31,0,0,0,2.06-3.79v-.13c0-1.59-.53-2.16-2.61-1.38C95.7,374.44,94.23,373.59,94.23,369.6Z" style="fill:#fff"></path><path d="M109.09,376.58l-3,1.71V356.24l4.7-2.72c2.33-1.35,5-1.94,5,3.91V358c0,5.88-2.65,8.31-5,9.66l-1.73,1ZM111,363.63c.8-.47,1.83-1.54,1.83-4v-.29c0-2.48-1-2.37-1.83-1.91l-1.86,1.08v6.22Z" style="fill:#fff"></path><path d="M116.77,361.68v-1.13c0-7.64,1.75-11.84,5.46-14s5.47,0,5.47,7.67v1.13c0,7.63-1.74,11.84-5.47,14S116.77,369.31,116.77,361.68Zm5.55,3.67c1.84-1.06,2.35-3.82,2.35-8.23V356c0-4.42-.51-6.58-2.35-5.52l-.17.1c-1.83,1.06-2.37,3.83-2.37,8.24v1.13c0,4.41.54,6.56,2.37,5.5Z" style="fill:#fff"></path><path d="M132.42,363.1l-3,1.72V342.76l4.7-2.71c2.33-1.35,5-1.94,5,3.91v.57c0,3.56-1,5.88-2.26,7.44l2.26,7.26-3.22,1.86-2-6.79-1.53.89Zm1.86-12.94c.81-.47,1.84-1.55,1.84-4v-.29c0-2.49-1-2.37-1.84-1.91L132.42,345v6.22Z" style="fill:#fff"></path><path d="M146.15,355.18l-3,1.72V338.8l-3.31,1.91v-4l9.61-5.55v4l-3.32,1.92Z" style="fill:#fff"></path><path d="M83.27,214.64V236.7l-3,1.72v-9.28l-4.17,2.41v9.27l-3,1.72V220.48l3-1.71v8.82l4.17-2.41v-8.82Z" style="fill:#fff"></path><path d="M94.09,208.39v4l-5.79,3.34v4.87l4.87-2.81v4l-4.87,2.81v5.31l5.79-3.34v4l-8.76,5.06V213.45Z" style="fill:#fff"></path><path d="M102.76,203.33l3.58,20-3.17,1.83-.7-4.35-3.51,2L98.28,228l-3.2,1.85,3.58-24.18ZM99.53,218.6l2.35-1.36-1.18-7.43Z" style="fill:#fff"></path><path d="M107.63,222.63v-22l3-1.72V217l5.29-3.06v4Z" style="fill:#fff"></path><path d="M121.43,214.67l-3,1.72v-18.1l-3.31,1.91v-4l9.61-5.55v4l-3.32,1.92Z" style="fill:#fff"></path><path d="M136.22,184.07v22.06l-3,1.72v-9.28L129.07,201v9.28l-3,1.71V189.92l3-1.72V197l4.17-2.41v-8.82Z" style="fill:#fff"></path></g></g></g><g id="freepik--Device--inject-63"><g id="freepik--Mobile--inject-63"><path d="M300.36,339.73v-297c0-7.64-3.8-9.74-7.17-11.69s-8.92-3.12-13.71-.36L156.85,101.5c-4.79,2.77-8.67,9.49-8.67,15v297c0,5.53,3.47,8.79,6.84,10.73s9.24,4.09,14,1.32l122.64-70.8A16.33,16.33,0,0,0,300.36,339.73Z" style="fill:#37474f"></path><path d="M292.56,342.54l-126.11,72.8,0-298.25L150.72,108a17.68,17.68,0,0,0-2.54,8.54v297c0,5.53,3.47,8.79,6.84,10.73s9.24,4.09,14,1.32l122.64-70.8a16.5,16.5,0,0,0,7.5-8.38l-.48-.28Z" style="fill:#263238"></path><path d="M291.46,40.19l-123,71a13.48,13.48,0,0,0-6.09,10.53V416.29c0,5.94,4.22,8.37,9.37,5.39l119.71-69.11a15.29,15.29,0,0,0,6.89-11.94V44.17C298.35,39.79,295.25,38,291.46,40.19Z" style="fill:#455a64"></path><path d="M292.35,58.25V333.6A14.49,14.49,0,0,1,285.8,345L174.93,409c-3.61,2.1-6.55.41-6.55-3.78V127.82a14.68,14.68,0,0,1,4.6-9.88l.62-.56a11.21,11.21,0,0,1,1.33-.91l31.19-18,2-1.18c1.12-.65,2-.13,2,1.18s1,1.79,2.18,1.09l36.34-21a4.68,4.68,0,0,0,2.17-3.6,4.58,4.58,0,0,1,1.83-3.4l.21-.13,30.5-17.61.65-.38C288.63,50.83,292.35,53,292.35,58.25Z"></path><path d="M276.29,337.6a14.52,14.52,0,0,0,6.55-11.36V54.17L252.91,71.45l-.21.13a4.58,4.58,0,0,0-1.83,3.4,4.68,4.68,0,0,1-2.17,3.6l-36.34,21c-1.2.7-2.18.2-2.18-1.09s-.91-1.83-2-1.18l-2,1.18-31.19,18a11.21,11.21,0,0,0-1.33.91l-.62.56a14.68,14.68,0,0,0-4.6,9.88V399.9Z" style="fill:#263238"></path><path d="M217.88,88.48l16.66-9.62c1-.58,1.8-.17,1.8.91a3.89,3.89,0,0,1-1.8,3l-16.66,9.61c-1,.58-1.8.17-1.8-.91A3.83,3.83,0,0,1,217.88,88.48Z" style="fill:#263238"></path><path d="M243.08,73.13c1.12-.65,2-.12,2,1.17a4.47,4.47,0,0,1-2,3.51c-1.12.65-2,.13-2-1.17A4.48,4.48,0,0,1,243.08,73.13Z" style="fill:#263238"></path><path d="M159.55,152.15a7.31,7.31,0,0,0-3.2-5.79,2.13,2.13,0,0,0-2.2-.19c-.4.25-2,1.13-2.4,1.38a2.51,2.51,0,0,0-1,2.28V174a7.33,7.33,0,0,0,3.2,5.8,2.16,2.16,0,0,0,2.12.22c.44-.23,2.06-1.16,2.48-1.41a2.52,2.52,0,0,0,1-2.28Z" style="fill:#455a64"></path><path d="M157.17,153.53v24.19c0,2.18-1.44,3.12-3.21,2.1a7.33,7.33,0,0,1-3.2-5.8V149.83c0-2.18,1.43-3.12,3.2-2.1A7.33,7.33,0,0,1,157.17,153.53Z" style="fill:#37474f"></path><path d="M159.55,194.5a7.31,7.31,0,0,0-3.2-5.79,2.1,2.1,0,0,0-2.2-.18c-.4.24-2,1.12-2.4,1.37a2.52,2.52,0,0,0-1,2.28v24.2a7.32,7.32,0,0,0,3.2,5.79,2.19,2.19,0,0,0,2.12.23c.44-.24,2.06-1.17,2.48-1.42a2.51,2.51,0,0,0,1-2.28Z" style="fill:#455a64"></path><path d="M157.17,195.88v24.2c0,2.18-1.44,3.11-3.21,2.09a7.32,7.32,0,0,1-3.2-5.79v-24.2c0-2.18,1.43-3.12,3.2-2.1A7.33,7.33,0,0,1,157.17,195.88Z" style="fill:#37474f"></path></g></g><g id="freepik--Screen--inject-63"><g id="freepik--Window--inject-63"><g id="freepik--window--inject-63"><path d="M308.26,67.88V343.23a14.53,14.53,0,0,1-6.55,11.36l-110.88,64c-3.61,2.1-6.55.41-6.55-3.77V137.45a14.65,14.65,0,0,1,4.6-9.87l.62-.56a10.22,10.22,0,0,1,1.33-.92l31.19-18,2-1.17c1.12-.66,2-.13,2,1.17s1,1.79,2.17,1.09l36.34-21a4.69,4.69,0,0,0,2.18-3.6,4.6,4.6,0,0,1,1.82-3.4l.21-.13,30.5-17.61.65-.38C304.53,60.46,308.26,62.61,308.26,67.88Z" style="fill:#fafafa"></path><path d="M187.9,420a3.85,3.85,0,0,1-1.93-.49c-1.39-.8-2.15-2.45-2.15-4.65V137.45a15.08,15.08,0,0,1,4.74-10.22l.22-.19.42-.38a12.1,12.1,0,0,1,1.4-1l31.19-18h0l2-1.17a1.86,1.86,0,0,1,1.9-.14,1.84,1.84,0,0,1,.83,1.72.94.94,0,0,0,.36.86,1.16,1.16,0,0,0,1.11-.17l36.35-21a4.21,4.21,0,0,0,1.94-3.19,5.08,5.08,0,0,1,2-3.78l.25-.16,31.15-18c2.36-1.36,4.61-1.57,6.33-.57s2.66,3,2.66,5.76V343.23A15,15,0,0,1,301.94,355L191.07,419A6.36,6.36,0,0,1,187.9,420ZM225,107.11a1.42,1.42,0,0,0-.67.22l-2,1.17-31.18,18a10.36,10.36,0,0,0-1.28.87l-.38.34-.22.2a14.27,14.27,0,0,0-4.44,9.53V414.83c0,1.85.6,3.21,1.69,3.84s2.56.46,4.16-.47l110.87-64a13.94,13.94,0,0,0,6.32-10.95V67.88c0-2.38-.78-4.13-2.2-4.95s-3.33-.62-5.39.56l-.65.38L269,81.48l-.17.1a4.17,4.17,0,0,0-1.63,3,5.12,5.12,0,0,1-2.4,4l-36.35,21a2,2,0,0,1-2.05.18,1.81,1.81,0,0,1-.82-1.67,1,1,0,0,0-.36-.92A.7.7,0,0,0,225,107.11Z" style="fill:#FFC100"></path><path d="M300,63.09l-.65.38-30.5,17.61-.21.13a4.6,4.6,0,0,0-1.82,3.4,4.69,4.69,0,0,1-2.18,3.6l-36.34,21c-1.2.7-2.17.2-2.17-1.09s-.92-1.83-2-1.17l-2,1.17-31.19,18a10.22,10.22,0,0,0-1.33.92l-.62.56a14.65,14.65,0,0,0-4.6,9.87v38.87l124-71.58V67.88C308.26,62.61,304.53,60.46,300,63.09Z" style="fill:#FFC100"></path></g><g id="freepik--Text--inject-63"><path d="M205,137.09v13.33l-1.79,1v-5.61l-2.52,1.46v5.6l-1.8,1V140.62l1.8-1v5.34l2.52-1.46v-5.33Z" style="fill:#fafafa"></path><path d="M211.56,133.32v2.39l-3.5,2v2.94L211,139v2.39l-2.95,1.7v3.21l3.5-2v2.4l-5.29,3V136.37Z" style="fill:#fafafa"></path><path d="M216.8,130.26,219,142.37l-1.92,1.11-.43-2.63-2.12,1.23-.41,3.1-1.93,1.12,2.17-14.61Zm-2,9.23,1.42-.82-.71-4.5Z" style="fill:#fafafa"></path><path d="M219.74,141.92V128.59l1.8-1v10.94l3.2-1.84V139Z" style="fill:#fafafa"></path><path d="M228.08,137.11l-1.8,1V127.21l-2,1.15V126l5.81-3.35V125l-2,1.16Z" style="fill:#fafafa"></path><path d="M237,118.62V132l-1.8,1v-5.61l-2.52,1.46v5.6l-1.8,1V122.15l1.8-1v5.34l2.52-1.46v-5.33Z" style="fill:#fafafa"></path><path d="M242.28,128.91l-1.8,1V116.62l2.84-1.64c1.41-.81,3-1.17,3,2.37v.34c0,3.55-1.6,5-3,5.84l-1,.6Zm1.12-7.82a2.54,2.54,0,0,0,1.11-2.44v-.17c0-1.5-.62-1.43-1.11-1.15l-1.12.65v3.76Z" style="fill:#fafafa"></path><path d="M251.16,110.42l2.16,12.12-1.92,1.1L251,121l-2.12,1.22-.41,3.11-1.93,1.12,2.16-14.62Zm-2,9.23,1.42-.82-.71-4.49Z" style="fill:#fafafa"></path><path d="M253.79,112.87v-.19a6.43,6.43,0,0,1,3-5.73c2.13-1.23,3.06-.31,3.06,2.81v.36l-1.79,1c0-1.74-.35-2.35-1.26-1.82l-.1.06a2.45,2.45,0,0,0-1.14,2.13v.08c0,1,.25,1.34,1.52.87,1.89-.7,2.84-.26,2.84,2.22v.17a6.48,6.48,0,0,1-3.13,5.86c-2,1.18-3.12.4-3.12-2.82v-.15l1.8-1c0,1.68.44,2.12,1.28,1.64l.1-.06a2.62,2.62,0,0,0,1.24-2.29v-.08c0-1-.32-1.3-1.58-.84C254.68,115.79,253.79,115.28,253.79,112.87Z" style="fill:#fafafa"></path><path d="M260.79,108.82v-.18a6.44,6.44,0,0,1,3.06-5.73c2.13-1.23,3.06-.32,3.06,2.81v.36l-1.8,1c0-1.75-.34-2.35-1.25-1.82l-.1,0a2.47,2.47,0,0,0-1.15,2.13v.09c0,1,.26,1.34,1.52.86,1.89-.69,2.85-.25,2.85,2.22v.18a6.45,6.45,0,0,1-3.13,5.85c-2.05,1.18-3.12.4-3.12-2.81v-.15l1.79-1c0,1.67.45,2.12,1.28,1.64l.1-.06a2.62,2.62,0,0,0,1.24-2.29v-.09c0-.95-.32-1.3-1.57-.83C261.68,111.75,260.79,111.23,260.79,108.82Z" style="fill:#fafafa"></path><path d="M269.77,113l-1.8,1V100.75l2.85-1.64c1.41-.82,3-1.18,3,2.36v.34c0,3.56-1.59,5-3,5.84l-1.05.6Zm1.12-7.83a2.54,2.54,0,0,0,1.11-2.43v-.17c0-1.51-.62-1.44-1.11-1.16l-1.12.65v3.76Z" style="fill:#fafafa"></path><path d="M274.41,104v-.69c0-4.61,1.06-7.15,3.3-8.45s3.31,0,3.31,4.64v.68c0,4.62-1.06,7.16-3.31,8.46S274.41,108.65,274.41,104Zm3.35,2.21c1.11-.64,1.42-2.3,1.42-5v-.68c0-2.67-.31-4-1.42-3.33l-.1,0c-1.11.64-1.43,2.32-1.43,5V103c0,2.66.32,4,1.43,3.32Z" style="fill:#fafafa"></path><path d="M283.87,104.9l-1.8,1V92.61L284.91,91c1.41-.82,3-1.18,3,2.36v.34a6.82,6.82,0,0,1-1.36,4.5l1.36,4.39L286,103.68l-1.19-4.1-.92.54ZM285,97.07a2.54,2.54,0,0,0,1.11-2.43v-.17c0-1.5-.62-1.44-1.11-1.16l-1.12.65v3.76Z" style="fill:#fafafa"></path><path d="M292.16,100.11l-1.8,1V90.21l-2,1.16V89l5.81-3.35V88l-2,1.17Z" style="fill:#fafafa"></path></g></g></g><g id="freepik--Code--inject-63"><path d="M281.62,246l2.88-1.67v15.81L281.77,262v7.61l2.72-1.11v3.66L281.76,274c-.07,1.29-.13,2.4-.2,3.73l-2.76,2v3.8l5.74-3.31V284l-17.78,10.27c-.05-1.23-.11-2.47-.16-3.72l2.89-1.67v-12l-2.82,1.82v11.89l-6.08,3.51v-8.1l2.89-1.66v-3.74c-1,.59-1.88,1.09-2.82,1.62v3.84l-3.06,1.65.07.06V280l-3.05,1.28c0-1.38.09-2.55.13-3.68l2.74-1.86v-7.68l-2.9,1.26v-7.8l3.07-1.79v3.84l2.8-1.61v-3.76l-2.87,1.66V256l-2.93,1.69v3.83l-3.06,1.77v-4l-3,1.73c0-1.31.11-2.62.17-4.19l11.9-6.88v3.91l2.88-1.37v7.67l3-1.7c.11-1.41.22-2.63.31-3.8l2.71-2v-3.49l-6,3.48c0-1.38,0-2.74,0-4.2l-2.9,1.67V242l6.08-3.42-.08-.05v4.1l6.08-3.51-.07-.06v15.85l9.08-5.24v-3.84Zm-12.07,15.17-8.79,5.07V277.8l8.79-5.08Zm6.08,4.05v-7.6l-2.81,1.63V270.9l2.73-1.28c.07,1.24.13,2.37.2,3.5l2.72-1.57v-7.66Zm-2.87,21.62,2.7-1.56v-7.62l-2.7,1.56Zm6-27.44,2.72-1.57v-3.57l-2.72,1.58Z" style="fill:#37474f"></path><path d="M233.57,245.71v-8l3.08-1.78-.07-.06c0,1.25.1,2.51.14,3.74l2.94-1.69v-3.83l-.08.14,2.89-1.67c.13,1.42.22,2.52.33,3.78l2.92-1.88V222.7l2.94-1.7-.07-.05c0,1.26.1,2.51.16,3.91l5.91-3.42v7.84l2.81-1.63v-7.74l-2.88,1.67c0-1.38,0-2.76.08-4.14l-.07.14,6-3.46v20l.07-.14-5.88,3.4c-.13-1.42-.24-2.52-.34-3.65l-2.81,1.38v-7.69l-3.07,1.77v7.62L245.66,239v7.8l-2.89,1.67c-.13,1.56-.22,2.77-.33,4.19L236.59,256v-3.85l-2.8,1.62v3.75l2.87-1.66q0,8.07-.08,16.14l.07-.13-2.93,1.69c-.08-1.41-.14-2.52-.21-3.87l-3,2,.12-4.36,2.87-1.65v-3.92l-2.87,1.66v-3.82l-2.94,1.69v3.83l-2.89,1.47c-.11-1.32-.21-2.42-.32-3.68l-2.64,1.69v7.8l5.85-3.38V273l2.88-1.36v3.73l-2.76,1.84v4l5.82-3.36v4l.07-.14-8.93,5.15V274.89l-6,3.46c-.08-1.43-.14-2.55-.21-3.81l-2.73,1.58c-.09,1.11-.19,2.32-.31,3.76l-2.76,2-.16,3.93.08-.13-2.88,1.66V271.54l8.66-5v-8l-2.67,1.26v-3.6l5.8-3.35v7.57l3-1.75v-7.88l9.07-5.24v3.84l2.81-1.62v-3.75Zm-5.78,7.43v3.73l2.69-1.56v-3.72ZM239.71,246l2.78-1.61v-3.65l-2.78,1.61Z" style="fill:#37474f"></path><path d="M254.67,289.46l-2.85,1.64c-.12,1.42-.22,2.65-.35,4.2l-11.88,6.86.07.06v-8.09l-3.08,1.77.08.05v-3.79l-3,1.27V281.59l-.07.14,3.07-1.78v-8.09l-.07.13,5.89-3.4c.13,1.42.23,2.53.34,3.71l2.85-1.65v4.08l-6,3.47v4l-2.88,1.67v3.74l2.81-1.63v-3.83l6-3.47v-4l5.87-3.38v3.94L248.83,277v7.76l2.68-1.26c.09,1.28.17,2.4.24,3.51l2.85-1.2v3.8Zm-9.19-2.81V283l-2.67,1.55v3.63Zm0,8.14v-3.73l-2.82,1.63c0,1.36.08,2.49.12,3.66Z" style="fill:#37474f"></path><path d="M209.75,227.59l20.67-11.94v27.62L209.75,255.2Zm3,21.95L227.45,241V221.44L212.71,230Z" style="fill:#37474f"></path><path d="M263.74,224V196.45l20.79-12V212Zm17.8-33.79-14.7,8.49v19.58l14.7-8.49Z" style="fill:#37474f"></path><path d="M230.47,315.32l-20.68,11.93V299.64l20.68-11.94Zm-3-2.16V293.45l-14.66,8.46v19.72Z" style="fill:#37474f"></path><path d="M236.65,236v-7.82l-2.88,1.25v-3.83l5.75-3.32c.07-1.44.12-2.54.19-3.85l2.88-2.12v-7.63l2.84-1.64c.1,1,.21,2.1.33,3.41l2.75-1.58c.07-1.17.15-2.38.24-3.74l2.75-1.59v11.56l3.1-1.32v3.85l.07-.14L248.59,221l.07.05v-7.82l-2.9,1.68c-.12,1.45-.23,2.67-.32,3.83l-2.85,1.94v7.63l-3,2.2v3.79l.08-.14-3.08,1.78Z" style="fill:#37474f"></path><path d="M272.68,239.15v-3.84l5.86-3.39c.07,1.15.13,2.27.21,3.59l5.72-3.3v8l-2.85,1.65.07.06c-.05-1.25-.09-2.5-.14-4l-5.75,3.32c-.13-1.4-.23-2.5-.35-3.77l-2.84,1.64Z" style="fill:#37474f"></path><path d="M212.55,285.85l5.93-3.42c0,1.24.08,2.35.13,3.68l-2.9,2.06c-.07,1.25-.14,2.45-.21,3.79l-5.78,3.33c0-1.08-.08-2.19-.13-3.5l3-2.23v-3.84Z" style="fill:#37474f"></path><path d="M239.59,302.16V306l2.88-1.21v3.64l-8.75,5.05v-3.58l2.79-2.06.15-3.94-.08.14,3.08-1.78Z" style="fill:#37474f"></path><path d="M257.76,199.85l2.71-1.57v11.65l-2.71,1.56Z" style="fill:#37474f"></path><path d="M284.53,216.45v3.64l-2.69,1.84c-.1,1.18-.21,2.39-.33,3.84l-2.71,1.57v-7.58Z" style="fill:#37474f"></path><path d="M236.47,219.83l-2.74,1.58v-7.68l2.74-1.74Z" style="fill:#37474f"></path><path d="M281.62,241.89V246l.07-.14-5.86,3.38v-3.91l5.86-3.38Z" style="fill:#37474f"></path><path d="M266.61,230.66l2.87-1.67v7.91l-2.88,1.66.08.05v-8.09Z" style="fill:#37474f"></path><path d="M236.66,303.86l-2.88,1.67v-7.91l2.88-1.67-.08-.05V304Z" style="fill:#37474f"></path><path d="M257.6,287.76v8l-3,1.73.07.05v-8.08l-.07.14,3.07-1.78Z" style="fill:#37474f"></path><path d="M260.6,234.12l3.07-1.77-.07-.06v4.1l-3,1.73.07-4.14Z" style="fill:#37474f"></path><path d="M272.77,223.19l2.7-1.56v3.65l-2.7,1.56Z" style="fill:#37474f"></path><path d="M263.67,232.35v-3.83l2.94-1.69v3.83l.07-.14-3.08,1.77Z" style="fill:#37474f"></path><path d="M209.69,263.31v-3.64l2.77-1.6v3.64Z" style="fill:#37474f"></path><path d="M245.75,306.47v-3.56l2.71-1.56v3.55Z" style="fill:#37474f"></path><path d="M254.6,297.49v3.82l-2.81,1.63v-3.73l2.88-1.67Z" style="fill:#37474f"></path><path d="M245.59,246.69l2.85-1.64c.1-1.29.21-2.51.33-3.94l2.82-1.62v7.74l6.08-3.51v3.84l-12.08,7Z" style="fill:#37474f"></path><path d="M248.66,260.92v4l3-1.73v4.09l-6.07,3.51.08-8.13-.07.14Z" style="fill:#37474f"></path><path d="M245.67,262.66l-5.88,3.39v-7.77l2.72-1.58c.07,1.16.13,2.2.2,3.45l2.89-1.2v3.85Z" style="fill:#37474f"></path><path d="M257.6,243.85V240l3.07-2v4.1Z" style="fill:#37474f"></path><path d="M263.75,272.09V268.5l2.74-1.59v3.6Z" style="fill:#37474f"></path><path d="M230.65,263.32v4.09l-3.07,1.78v-4.1Z" style="fill:#37474f"></path><path d="M215.79,232.07l8.67-5v11.7l-8.67,5Z" style="fill:#37474f"></path><path d="M278.44,207.64l-8.64,5V200.94l8.64-5Z" style="fill:#37474f"></path><path d="M215.72,315.81V304.24l8.73-5v11.57Z" style="fill:#37474f"></path><path d="M202.15,252a.87.87,0,0,1-.87-.86V222a.87.87,0,0,1,.44-.75l21.95-12.67a.86.86,0,0,1,1.18.31.87.87,0,0,1-.31,1.19L203,222.46v28.72A.87.87,0,0,1,202.15,252Z" style="fill:#FFC100"></path><path d="M202.15,342.49a.82.82,0,0,1-.43-.12.86.86,0,0,1-.44-.75V312.41a.87.87,0,0,1,1.74,0v27.71l20.65-11.92a.86.86,0,0,1,1.18.31.87.87,0,0,1-.31,1.19l-22,12.67A.82.82,0,0,1,202.15,342.49Z" style="fill:#FFC100"></path><path d="M292,200.18a.87.87,0,0,1-.87-.87V171.6l-20.65,11.92a.86.86,0,1,1-.86-1.5l21.95-12.67a.88.88,0,0,1,.86,0,.86.86,0,0,1,.43.75v29.21A.86.86,0,0,1,292,200.18Z" style="fill:#FFC100"></path><path d="M270,303.3a.87.87,0,0,1-.43-1.62l21.51-12.42V260.55a.87.87,0,1,1,1.73,0v29.21a.86.86,0,0,1-.43.75l-22,12.67A.85.85,0,0,1,270,303.3Z" style="fill:#FFC100"></path></g><g id="freepik--Texts--inject-63"><path d="M213.62,185.73c0,.21,0,.49,0,.86s0,.73,0,1.12,0,.76,0,1.12,0,.65,0,.85a6.36,6.36,0,0,0,.14.95,1.41,1.41,0,0,0,.34.68.81.81,0,0,0,.58.26,1.61,1.61,0,0,0,.87-.28,3.26,3.26,0,0,0,.85-.68,3.79,3.79,0,0,0,.55-.77,4.75,4.75,0,0,0,.33-.79c.08-.27.13-.5.18-.72a3,3,0,0,1,.16-.62.78.78,0,0,1,.36-.36l2-1.15a.17.17,0,0,1,.23,0,.38.38,0,0,1,.1.3,9.52,9.52,0,0,1-.38,2.48,11.37,11.37,0,0,1-1,2.41,11.83,11.83,0,0,1-1.5,2.11,7.81,7.81,0,0,1-1.87,1.53,3.88,3.88,0,0,1-2,.63,2.24,2.24,0,0,1-1.48-.52,3.36,3.36,0,0,1-.94-1.49,8.26,8.26,0,0,1-.37-2.24c0-.63,0-1.32,0-2.05s0-1.45,0-2.14a12,12,0,0,1,.37-2.67,12.49,12.49,0,0,1,.93-2.57,11.22,11.22,0,0,1,1.48-2.23,7.49,7.49,0,0,1,2-1.64,4.16,4.16,0,0,1,1.87-.62,2.51,2.51,0,0,1,1.5.37,2.67,2.67,0,0,1,1,1.25,5.32,5.32,0,0,1,.38,2,1,1,0,0,1-.1.43.6.6,0,0,1-.23.28L218,183c-.18.1-.3.12-.36.05a1.09,1.09,0,0,1-.16-.43,3.45,3.45,0,0,0-.18-.51,1,1,0,0,0-.33-.41.85.85,0,0,0-.55-.14,1.81,1.81,0,0,0-.85.3,3,3,0,0,0-.87.73,3.72,3.72,0,0,0-.58.93,4.45,4.45,0,0,0-.34,1.07A10.2,10.2,0,0,0,213.62,185.73Z" style="fill:#455a64"></path><path d="M221.53,181.05a13.21,13.21,0,0,1,.38-2.7,11.35,11.35,0,0,1,.93-2.56,11,11,0,0,1,1.46-2.21,7.53,7.53,0,0,1,2-1.65,3.94,3.94,0,0,1,2-.64,2.19,2.19,0,0,1,1.47.51,3.17,3.17,0,0,1,.93,1.48,8,8,0,0,1,.38,2.27c0,.66,0,1.36,0,2.09s0,1.44,0,2.09a13.11,13.11,0,0,1-.38,2.69,12,12,0,0,1-.93,2.58,10.12,10.12,0,0,1-1.47,2.21,7.94,7.94,0,0,1-2,1.64,4.33,4.33,0,0,1-2,.66,2.14,2.14,0,0,1-1.46-.52,3.21,3.21,0,0,1-.93-1.5,7.9,7.9,0,0,1-.38-2.26c0-.63,0-1.31,0-2S221.51,181.73,221.53,181.05Zm6.7.19c0-.29,0-.6,0-1s0-.7,0-1.06,0-.71,0-1,0-.63,0-.89a3.94,3.94,0,0,0-.16-1,1.51,1.51,0,0,0-.36-.64.9.9,0,0,0-.59-.24,1.71,1.71,0,0,0-.82.27,3.05,3.05,0,0,0-.83.68,4.65,4.65,0,0,0-.59.92,5.18,5.18,0,0,0-.36,1.07,6.46,6.46,0,0,0-.16,1.17c0,.28,0,.59,0,.93s0,.69,0,1,0,.71,0,1.05,0,.65,0,.92a2.62,2.62,0,0,0,.52,1.65c.31.34.78.32,1.42,0a3.35,3.35,0,0,0,1.4-1.59A6.45,6.45,0,0,0,228.23,181.24Z" style="fill:#455a64"></path><path d="M235.73,183.17q-.6.35-.81-.48l-3.11-12.89a1.64,1.64,0,0,1,0-.19.28.28,0,0,1,0-.09.92.92,0,0,1,.1-.42.6.6,0,0,1,.24-.29L234,167.7c.2-.12.35-.13.43,0a.56.56,0,0,1,.17.3l2.12,9.11,2.12-11.57A1.78,1.78,0,0,1,239,165a1,1,0,0,1,.43-.45l1.93-1.11a.18.18,0,0,1,.23,0,.4.4,0,0,1,.1.31v.1s0,.11,0,.23l-3.12,16.49a2,2,0,0,1-.81,1.4Z" style="fill:#455a64"></path><path d="M243.53,178.66a.21.21,0,0,1-.29,0,.5.5,0,0,1-.12-.37V163.08a1.19,1.19,0,0,1,.12-.51.78.78,0,0,1,.29-.36l2-1.16a.23.23,0,0,1,.29,0,.5.5,0,0,1,.12.37v15.19a1.19,1.19,0,0,1-.12.51.78.78,0,0,1-.29.36Z" style="fill:#455a64"></path><path d="M252.54,157a4.12,4.12,0,0,1,1.92-.63,2.24,2.24,0,0,1,1.5.49,3.17,3.17,0,0,1,1,1.5,8,8,0,0,1,.4,2.41c0,.33,0,.62,0,.9v1.56c0,.27,0,.56,0,.88A13.24,13.24,0,0,1,257,167a11.87,11.87,0,0,1-1,2.62,10.37,10.37,0,0,1-1.47,2.21,7.7,7.7,0,0,1-1.91,1.58l-4.12,2.38a.22.22,0,0,1-.29,0,.52.52,0,0,1-.12-.38V160.22a1.27,1.27,0,0,1,.12-.52.75.75,0,0,1,.29-.35Zm2,5.31c-.06-1.77-.76-2.27-2.08-1.51l-1.56.9v8.94l1.64-1a4.22,4.22,0,0,0,2-3.86c0-.33,0-.64,0-.93v-1.68C254.55,163,254.55,162.64,254.54,162.32Z" style="fill:#455a64"></path><path d="M259.3,164.32a.22.22,0,0,1-.29,0,.52.52,0,0,1-.12-.38v-2.37A1.23,1.23,0,0,1,259,161a.84.84,0,0,1,.29-.36l4.81-2.77a.21.21,0,0,1,.29,0,.5.5,0,0,1,.12.37v2.38a1.27,1.27,0,0,1-.12.52.75.75,0,0,1-.29.35Z" style="fill:#455a64"></path><path d="M265.31,154.92a.6.6,0,0,1-.07-.42,1.18,1.18,0,0,1,.17-.52l3.28-5.78.3-.5a1.16,1.16,0,0,1,.4-.42l1.86-1.08a.24.24,0,0,1,.29,0,.53.53,0,0,1,.13.38v15.19a1.2,1.2,0,0,1-.13.51.84.84,0,0,1-.29.36l-2,1.15a.21.21,0,0,1-.29,0,.5.5,0,0,1-.12-.37V153.14L267,156.31a.62.62,0,0,1-.3.3.21.21,0,0,1-.28-.08Z" style="fill:#455a64"></path><path d="M273.11,150.75a9.62,9.62,0,0,1,.38-2.67,11.17,11.17,0,0,1,1-2.43,10.45,10.45,0,0,1,1.43-2,7.29,7.29,0,0,1,1.67-1.36,4,4,0,0,1,1.66-.56,2.33,2.33,0,0,1,1.44.32,2.79,2.79,0,0,1,1,1.27,5.76,5.76,0,0,1,.37,2.24,8.12,8.12,0,0,1-.1,1.32,9.94,9.94,0,0,1-.26,1.23,11.33,11.33,0,0,1-.36,1.17q-.19.57-.39,1.11l-2.9,7.86a4,4,0,0,0-.17.39.66.66,0,0,1-.31.35l-2.42,1.4c-.1.05-.17.05-.23,0a.56.56,0,0,1-.08-.32,1,1,0,0,1,0-.2,1.16,1.16,0,0,1,.06-.15l1.95-5.36a3.16,3.16,0,0,1-1.43.2,2.09,2.09,0,0,1-1.2-.51,3,3,0,0,1-.82-1.25A5.94,5.94,0,0,1,273.11,150.75Zm6.13-3.54a2,2,0,0,0-.14-.78.87.87,0,0,0-.89-.56,1.41,1.41,0,0,0-.62.2,2.89,2.89,0,0,0-.62.51,4.4,4.4,0,0,0-.53.73,4.19,4.19,0,0,0-.36.87,3,3,0,0,0-.14.94,1.74,1.74,0,0,0,.14.77.93.93,0,0,0,.36.45.94.94,0,0,0,.53.12,1.45,1.45,0,0,0,.62-.2,3.16,3.16,0,0,0,.62-.51,4.36,4.36,0,0,0,.52-.73,3.74,3.74,0,0,0,.37-.87A3.34,3.34,0,0,0,279.24,147.21Z" style="fill:#455a64"></path><path d="M212.23,377.91a.21.21,0,0,1-.29,0,.5.5,0,0,1-.12-.37V362.33a1.27,1.27,0,0,1,.12-.52.81.81,0,0,1,.29-.35l2-1.16a.22.22,0,0,1,.29,0,.45.45,0,0,1,.13.37v15.19a1.07,1.07,0,0,1-.13.51.77.77,0,0,1-.29.36Z" style="fill:#FFC100"></path><path d="M221.25,368.56a.9.9,0,0,1-.21-.27l-1.43-3.05V373a1.23,1.23,0,0,1-.12.52.81.81,0,0,1-.29.35l-2,1.16a.22.22,0,0,1-.29,0,.53.53,0,0,1-.13-.38V359.47a1.25,1.25,0,0,1,.13-.52.77.77,0,0,1,.29-.36l1.77-1c.2-.11.35-.12.46,0a1.24,1.24,0,0,1,.19.26l2.48,5.08,2.47-7.94c0-.09.1-.26.2-.49a1.06,1.06,0,0,1,.46-.52l1.77-1a.21.21,0,0,1,.29,0,.5.5,0,0,1,.12.37v15.19a1.19,1.19,0,0,1-.12.51.78.78,0,0,1-.29.36l-2,1.15a.21.21,0,0,1-.29,0,.5.5,0,0,1-.12-.37v-7.78l-1.44,4.7a3.45,3.45,0,0,1-.21.51.89.89,0,0,1-.35.41l-1,.56C221.46,368.64,221.34,368.64,221.25,368.56Z" style="fill:#FFC100"></path><path d="M234,361.19a1.05,1.05,0,0,1-.2-.27l-1.44-3.05v7.78a1.23,1.23,0,0,1-.12.52.75.75,0,0,1-.29.35l-2,1.16a.22.22,0,0,1-.29,0,.51.51,0,0,1-.12-.38V352.1a1.23,1.23,0,0,1,.12-.52.75.75,0,0,1,.29-.35l1.77-1c.2-.11.36-.12.46,0a1.39,1.39,0,0,1,.2.26l2.47,5.08,2.47-7.94c0-.09.1-.26.2-.49a1.11,1.11,0,0,1,.46-.52l1.77-1a.21.21,0,0,1,.29,0,.5.5,0,0,1,.12.37v15.19a1.19,1.19,0,0,1-.12.51.73.73,0,0,1-.29.36l-2,1.16a.23.23,0,0,1-.29,0,.48.48,0,0,1-.12-.37V355l-1.44,4.71c0,.15-.12.32-.2.5a.91.91,0,0,1-.36.41l-1,.56C234.22,361.27,234.1,361.27,234,361.19Z" style="fill:#FFC100"></path><path d="M251.07,339a.21.21,0,0,1,.29,0,.5.5,0,0,1,.12.37v9.38a13.67,13.67,0,0,1-.33,3.06,11.55,11.55,0,0,1-1,2.65,10,10,0,0,1-1.48,2.13,8,8,0,0,1-1.88,1.52,4.44,4.44,0,0,1-1.89.65,2,2,0,0,1-1.46-.43,3.1,3.1,0,0,1-1-1.55,8.71,8.71,0,0,1-.34-2.67v-9.38a1.14,1.14,0,0,1,.13-.52.69.69,0,0,1,.29-.35l2-1.16a.23.23,0,0,1,.29,0,.48.48,0,0,1,.12.37v9.29a3.08,3.08,0,0,0,.45,1.94c.3.36.75.37,1.36,0a3.18,3.18,0,0,0,1.37-1.58,6.29,6.29,0,0,0,.45-2.47v-9.29a1.19,1.19,0,0,1,.12-.51.84.84,0,0,1,.29-.36Z" style="fill:#FFC100"></path><path d="M260.46,350.07a.37.37,0,0,1-.42,0,.62.62,0,0,1-.2-.21l-3.5-6v7.94a1.2,1.2,0,0,1-.12.52.84.84,0,0,1-.29.36l-2,1.15a.21.21,0,0,1-.29,0,.51.51,0,0,1-.12-.38V338.26a1.27,1.27,0,0,1,.12-.52.69.69,0,0,1,.29-.35l1.59-.92c.17-.1.31-.11.41,0a.68.68,0,0,1,.21.21l3.5,6v-7.94a1.2,1.2,0,0,1,.12-.52.84.84,0,0,1,.29-.36l2-1.15a.22.22,0,0,1,.29,0,.51.51,0,0,1,.12.38v15.18a1.27,1.27,0,0,1-.12.52.75.75,0,0,1-.29.35Z" style="fill:#FFC100"></path><path d="M265,347.44a.21.21,0,0,1-.29,0,.5.5,0,0,1-.12-.37V331.86a1.27,1.27,0,0,1,.12-.52A.75.75,0,0,1,265,331l2-1.16a.23.23,0,0,1,.29,0,.48.48,0,0,1,.12.37v15.18a1.2,1.2,0,0,1-.12.52.84.84,0,0,1-.29.36Z" style="fill:#FFC100"></path><path d="M277.41,323.83a.24.24,0,0,1,.29,0,.52.52,0,0,1,.12.38v2.49a1.23,1.23,0,0,1-.12.52.81.81,0,0,1-.29.35l-2.69,1.55V341.2a1.2,1.2,0,0,1-.12.52.75.75,0,0,1-.29.35l-2,1.16a.22.22,0,0,1-.29,0,.51.51,0,0,1-.12-.38V330.78l-2.69,1.55a.24.24,0,0,1-.29,0,.52.52,0,0,1-.12-.38v-2.49a1.23,1.23,0,0,1,.12-.52.75.75,0,0,1,.29-.35Z" style="fill:#FFC100"></path><path d="M284.78,335.39a1.2,1.2,0,0,1-.12.52.84.84,0,0,1-.29.36l-2,1.15a.21.21,0,0,1-.29,0A.51.51,0,0,1,282,337v-5l-3.53-8a.58.58,0,0,1-.06-.26.94.94,0,0,1,.1-.43.63.63,0,0,1,.23-.29l2.1-1.2q.3-.18.45,0a.66.66,0,0,1,.19.24l1.92,4.68,1.94-6.91a2.85,2.85,0,0,1,.18-.46,1.09,1.09,0,0,1,.46-.49L288,317.7a.17.17,0,0,1,.24,0,.41.41,0,0,1,.1.3,1.16,1.16,0,0,1-.06.34l-3.53,12Z" style="fill:#FFC100"></path></g><g id="freepik--plane-icon--inject-63"><g id="freepik--Icon--inject-63"><g id="freepik--speech-bubble--inject-63"><path d="M151.29,442.73a5.88,5.88,0,0,1,2.66,4.61v1.1a5.88,5.88,0,0,1-2.66,4.61l-31.84,18.42a5.87,5.87,0,0,1-5.32,0L83.07,453.53a5.86,5.86,0,0,1-2.66-4.6v-1.11a5.88,5.88,0,0,1,2.66-4.61l31.85-18.41a5.87,5.87,0,0,1,5.32,0Z" style="fill:#455a64"></path><path d="M83.07,453.53a5.86,5.86,0,0,1-2.66-4.6v-1.11a6,6,0,0,1,2.25-4.32c-1,.85-.9,2,.41,2.78l30.42,17.57c1.35.78,2.32,1.41,3.28,1.41l0,6.84a5.45,5.45,0,0,1-2.66-.63Z"></path><path d="M151.9,443.18c.83.83.62,1.91-.6,2.62l-31.86,18.42a5.69,5.69,0,0,1-2.67,1v6.84a5.21,5.21,0,0,0,2.66-.63l31.85-18.41a5.89,5.89,0,0,0,2.66-4.61v-1.11A5.88,5.88,0,0,0,151.9,443.18Z" style="fill:#37474f"></path></g><path d="M116.78,458.49c.89,0,1-1.43,1-1.43l4,.54v-.54L118,454.39a69.08,69.08,0,0,0,1.55-8.86l12.66.19,0-.61-9.48-3.75,0-1.32a.4.4,0,0,0-.49-.38.57.57,0,0,0-.51.5l0,.81-1.83-.73c.15-6.19-.33-10.18-2.64-10.22s-2.92,3.94-3,10.13l-1.86.67V440a.57.57,0,0,0-.5-.52.41.41,0,0,0-.5.37v1.31l-9.6,3.45v.61l12.67.22a68.26,68.26,0,0,0,1.25,8.91l-4,2.54v.54l4-.41S115.89,458.48,116.78,458.49Z" style="fill:#fafafa"></path></g></g><g id="freepik--Suitcase--inject-63"><g id="freepik--Luggage--inject-63"><polygon points="312.85 230.95 310.28 232.44 310.28 292.43 312.85 290.94 312.85 230.95" style="fill:#37474f"></polygon><polygon points="307.71 230.95 310.28 232.44 310.28 292.43 307.71 290.94 307.71 230.95" style="fill:#263238"></polygon><polygon points="342.3 213.95 344.87 212.47 344.87 272.46 342.3 273.94 342.3 213.95" style="fill:#37474f"></polygon><polygon points="342.3 213.95 339.73 212.47 339.73 272.46 342.3 273.94 342.3 213.95" style="fill:#263238"></polygon><path d="M344.86,202.36a1.84,1.84,0,0,0-2,.1l-36.23,20.92a7,7,0,0,0-2.91,5.57v4.33l2.81,1.62,42.05-24.28v-4.33a2.59,2.59,0,0,0-1-2.33C347.13,203.65,345.32,202.67,344.86,202.36Z" style="fill:#37474f"></path><path d="M309.46,225l36.23-20.91c1.61-.93,2.91,0,2.91,2.2v4.33L306.55,234.9v-4.33A7,7,0,0,1,309.46,225Z" style="fill:#455a64"></path><path d="M336.15,436a4,4,0,0,0-3.94-.41c-1,.58-4.6,2.67-5.62,3.24s-1.66,1.85-1.66,3.65a12.4,12.4,0,0,0,5.61,9.72,4,4,0,0,0,3.93.41c1-.58,4.66-2.67,5.68-3.28a4,4,0,0,0,1.61-3.61A12.4,12.4,0,0,0,336.15,436Z" style="fill:#37474f"></path><path d="M330.54,452.21c3.1,1.79,5.61.34,5.61-3.24a12.4,12.4,0,0,0-5.61-9.72c-3.1-1.79-5.61-.34-5.61,3.24A12.4,12.4,0,0,0,330.54,452.21Z" style="fill:#263238"></path><path d="M330.54,448.45c1.3.76,2.36.15,2.36-1.36a5.25,5.25,0,0,0-2.36-4.09c-1.31-.75-2.36-.14-2.36,1.37A5.19,5.19,0,0,0,330.54,448.45Z"></path><path d="M379,411.27a4,4,0,0,0-3.94-.41c-1,.58-4.6,2.67-5.62,3.24s-1.66,1.85-1.66,3.65a12.4,12.4,0,0,0,5.61,9.72,4,4,0,0,0,3.93.41c1-.58,4.66-2.67,5.68-3.28a4,4,0,0,0,1.61-3.61A12.4,12.4,0,0,0,379,411.27Z" style="fill:#37474f"></path><path d="M373.39,427.47c3.1,1.79,5.61.34,5.61-3.24a12.4,12.4,0,0,0-5.61-9.72c-3.1-1.79-5.61-.34-5.61,3.24A12.4,12.4,0,0,0,373.39,427.47Z" style="fill:#263238"></path><path d="M373.39,423.71c1.3.76,2.36.15,2.36-1.36a5.25,5.25,0,0,0-2.36-4.09c-1.31-.75-2.36-.14-2.36,1.37A5.19,5.19,0,0,0,373.39,423.71Z"></path><path d="M297.84,430.76l27.89,16.06a3.81,3.81,0,0,0,3.48,0l57.38-33.13a3.81,3.81,0,0,0,1.74-3v-7.42L327.47,438.4,296.1,420.33v7.41A3.87,3.87,0,0,0,297.84,430.76Z" style="fill:#455a64"></path><path d="M327.47,438.4h0L296.1,420.33v7.41a3.87,3.87,0,0,0,1.74,3l27.89,16.06a3.53,3.53,0,0,0,1.74.42Z" style="fill:#37474f"></path><path d="M328.44,443.85a.07.07,0,0,0,.06,0l-.06.05Z" style="fill:#FFC100"></path><path d="M392.59,292.75V404.38a3.59,3.59,0,0,1-1.52,3.32L328.5,443.82a3.62,3.62,0,0,0,1.45-3.27V328.92a16.07,16.07,0,0,0-7.28-12.59l-27.28-15.71a3.75,3.75,0,0,0-3.37-.47l62.36-36a3.58,3.58,0,0,1,3.64.34l27.3,15.7A16.18,16.18,0,0,1,392.59,292.75Z" style="fill:#FFC100"></path><path d="M328.44,443.85a.07.07,0,0,0,.06,0l-.06.05Z" style="opacity:0.2"></path><path d="M295.38,426.58l29.43,16.93c2.83,1.63,5.14.3,5.14-3V328.92a16.12,16.12,0,0,0-7.27-12.59l-27.3-15.71c-2.82-1.63-5.14-.29-5.14,3V417.68A11.41,11.41,0,0,0,295.38,426.58Z" style="fill:#FFC100"></path><path d="M295.38,426.58l29.43,16.93c2.83,1.63,5.14.3,5.14-3V328.92a16.12,16.12,0,0,0-7.27-12.59l-27.3-15.71c-2.82-1.63-5.14-.29-5.14,3V417.68A11.41,11.41,0,0,0,295.38,426.58Z" style="opacity:0.30000000000000004"></path><path d="M320.31,440.91l5,2.92a3.22,3.22,0,0,0,3.22,0l8-4.64v-5.65a1.15,1.15,0,0,0-1.73-1l-4.87,2.81L322,430.79a1.15,1.15,0,0,0-1.73,1Z" style="fill:#37474f"></path><path d="M330,440.55v-5.2h0L322,430.79a1.15,1.15,0,0,0-1.73,1v9.12l0,0,4.47,2.58a4,4,0,0,0,3.09.58,4.08,4.08,0,0,0,.54-.22A3.61,3.61,0,0,0,330,440.55Z" style="fill:#263238"></path><path d="M391.08,407.7a3.6,3.6,0,0,0,1.5-3.32V399.2h0l-5.14,3a2.94,2.94,0,0,0-1.46,2.53v6Z" style="fill:#37474f"></path><path d="M389.5,284.13l-62.64,36.16a13.54,13.54,0,0,0-4.19-4l-27.28-15.71a3.74,3.74,0,0,0-3.4-.46l62.4-36.05a3.6,3.6,0,0,1,3.62.35l27.3,15.7A14.16,14.16,0,0,1,389.5,284.13Z" style="fill:#fff;opacity:0.2"></path><path d="M355.57,273.8a6.65,6.65,0,0,0-6,0l-3,1.74v1l6,3.48,3-1.74a2.12,2.12,0,0,0,1.25-1.75v-1A2.1,2.1,0,0,0,355.57,273.8Z" style="fill:#263238"></path><path d="M346.53,275.54l3-1.74a6.65,6.65,0,0,1,6,0c1.67,1,1.67,2.52,0,3.49l-3,1.74Z" style="fill:#455a64"></path><polygon points="352.56 274.29 352.56 279.03 346.53 275.55 346.53 270.81 352.56 274.29" style="fill:#37474f"></polygon><polygon points="322.42 291.76 352.56 274.29 346.53 270.81 316.39 288.21 322.42 291.76" style="fill:#455a64"></polygon><polygon points="316.39 292.95 316.39 288.21 322.42 291.76 322.42 296.43 316.39 292.95" style="fill:#37474f"></polygon><path d="M322.4,296.43l-6-3.48-3,1.74a2.08,2.08,0,0,0-1.23,1.72v1a2.08,2.08,0,0,0,1.23,1.73,6.67,6.67,0,0,0,6,0l3-1.74Z" style="fill:#263238"></path><path d="M316.39,293l-3,1.74c-1.67,1-1.67,2.52,0,3.48a6.67,6.67,0,0,0,6,0l3-1.74Z" style="fill:#455a64"></path><polygon points="323.4 291.18 323.4 296.85 322.4 297.42 322.4 291.75 323.4 291.18" style="fill:#263238"></polygon><polygon points="352.56 274.29 352.56 280 351.57 280.57 351.57 274.86 352.56 274.29" style="fill:#263238"></polygon><polygon points="322.4 292.95 352.56 275.48 352.56 274.29 322.4 291.75 322.4 292.95" style="fill:#263238"></polygon><polygon points="351.57 280.57 351.57 276.06 347.67 278.31 351.57 280.57" style="fill:#37474f"></polygon><path d="M337.41,368.65l47.69-27.53c1.41-.82,2.55.05,2.55,1.92V389.3c0,4.8-2.92,10.37-6.52,12.45L341.38,424.7c-3.6,2.08-6.52-.12-6.52-4.92V373.52A6.09,6.09,0,0,1,337.41,368.65Z" style="fill:#263238"></path><path d="M337.41,365.25l47.69-27.53c1.41-.82,2.55,0,2.55,1.92V385.9c0,4.8-2.92,10.37-6.52,12.45L341.38,421.3c-3.6,2.08-6.52-.12-6.52-4.92V370.12A6.09,6.09,0,0,1,337.41,365.25Z" style="fill:#455a64"></path><polygon points="340.07 371.01 382.44 346.55 382.44 347.89 340.07 372.35 340.07 371.01" style="fill:#fafafa"></polygon><path d="M341.24,378.7l-.87.5c-.7.4-1.23-.13-1.11-1.11l.81-7.08,1.47-.85.81,6.14A2.67,2.67,0,0,1,341.24,378.7Z" style="fill:#263238"></path><path d="M383.26,303.43l-44,25.41c-2.42,1.4-4.39,5.15-4.39,8.38v20.54c0,3.23,2,4.72,4.39,3.32l44-25.41c2.43-1.4,4.39-5.16,4.39-8.39V306.74C387.65,303.51,385.69,302,383.26,303.43Z" style="fill:#263238"></path><path d="M383.26,300l-44,25.41c-2.42,1.4-4.39,5.15-4.39,8.38v20.54c0,3.23,2,4.72,4.39,3.32l44-25.41c2.43-1.4,4.39-5.16,4.39-8.39V303.35C387.65,300.11,385.69,298.63,383.26,300Z" style="fill:#455a64"></path><polygon points="356.27 330.63 368.92 323.32 368.92 330.61 356.27 337.91 356.27 330.63" style="fill:#FFC100"></polygon><path d="M370.07,331.47l-14.94,8.63V329.76l14.94-8.63Zm-13.8,6.44,12.65-7.31v-7.28l-12.65,7.3Z" style="fill:#37474f"></path><polygon points="340.07 331.06 382.44 306.6 382.44 307.94 340.07 332.4 340.07 331.06" style="fill:#fafafa"></polygon><path d="M341.24,338.75l-.87.5c-.7.4-1.23-.13-1.11-1.11l.81-7.07,1.47-.85.81,6.13A2.67,2.67,0,0,1,341.24,338.75Z" style="fill:#263238"></path></g></g><g id="freepik--speech-bubble--inject-63"><g id="freepik--speech-bubble--inject-63"><path d="M115.78,44.82v0l-.06,0a6.78,6.78,0,0,0-1.18-.87c-1.48-.88-8.19-4.73-8.54-4.95-3.55-2.25-9.17-1.76-14.18.78-7.17,3.62-13.14,11.27-17.7,24,0,0-4.61-3.31-6.12-4.14-3.7-2-8-1-12.91,2.13-5.5,3.58-9.24,8.22-12.67,15.24l-.06.13h0a45.58,45.58,0,0,0-4.74,19.16c-.06,14.72,6,21.74,13.86,27,2.24,1.5,8.16,4.67,8.75,5.07a49.4,49.4,0,0,0,15.48,6.76l7.72,1.81,7.73-10.73a251,251,0,0,0,15.48-24.64c7.84-14.32,13.93-28.37,13.87-43C120.51,52.18,118.71,47.5,115.78,44.82Z" style="fill:#FFC100"></path><path d="M115.78,44.82v0l-.06,0a6.78,6.78,0,0,0-1.18-.87c-1.48-.88-8.19-4.73-8.54-4.95-3.55-2.25-9.17-1.76-14.18.78-7.17,3.62-13.14,11.27-17.7,24,0,0-4.61-3.31-6.12-4.14-3.7-2-8-1-12.91,2.13-5.5,3.58-9.24,8.22-12.67,15.24l-.06.13h0a45.58,45.58,0,0,0-4.74,19.16c-.06,14.72,6,21.74,13.86,27,2.24,1.5,8.16,4.67,8.75,5.07a49.4,49.4,0,0,0,15.48,6.76l7.72,1.81,7.73-10.73a251,251,0,0,0,15.48-24.64c7.84-14.32,13.93-28.37,13.87-43C120.51,52.18,118.71,47.5,115.78,44.82Z" style="opacity:0.15"></path><path d="M115.78,44.82v0l-.06,0a6.78,6.78,0,0,0-1.18-.87c-1.48-.88-8.19-4.73-8.54-4.95-3.55-2.25-9.17-1.76-14.18.78-7.17,3.62-13.14,11.27-17.7,24,0,0-4.61-3.31-6.12-4.14-3.7-2-8-1-12.91,2.13-5.5,3.58-9.24,8.22-12.67,15.24l-.06.13h0c-.14.3-.27.61-.41.92l58.66,33.86c2.07-3.37,4.1-6.8,6-10.33,7.84-14.32,13.93-28.37,13.87-43C120.51,52.18,118.71,47.5,115.78,44.82Z" style="fill:#FFC100"></path><path d="M115.78,44.82v0l-.06,0a6.78,6.78,0,0,0-1.18-.87c-1.48-.88-8.19-4.73-8.54-4.95-3.55-2.25-9.17-1.76-14.18.78-7.17,3.62-13.14,11.27-17.7,24,0,0-4.61-3.31-6.12-4.14-3.7-2-8-1-12.91,2.13-5.5,3.58-9.24,8.22-12.67,15.24l-.06.13h0c-.14.3-.27.61-.41.92l58.66,33.86c2.07-3.37,4.1-6.8,6-10.33,7.84-14.32,13.93-28.37,13.87-43C120.51,52.18,118.71,47.5,115.78,44.82Z" style="fill:#FFC100"></path><path d="M74.13,63.7h0L82,74,94.65,59,80.34,50.7A63.08,63.08,0,0,0,74.13,63.7Z" style="fill:#FFC100"></path><path d="M74.13,63.7h0L82,74,94.65,59,80.34,50.7A63.08,63.08,0,0,0,74.13,63.7Z" style="opacity:0.15"></path><path d="M105.1,104.27c.52-.91,1.05-1.82,1.56-2.75,7.84-14.32,13.93-28.37,13.87-43,0-6.31-1.82-11-4.75-13.67v0l-.06,0c-3.42-3.07-9.66-2.75-15.16,0-7.52,3.8-13.72,12-18.36,25.91-4.64-8.53-10.85-8.8-18.36-3.91C58.34,70.34,54.6,75,51.18,82l-.06.13a45.4,45.4,0,0,0-4.74,19.16c-.06,14.73,6,21.75,13.87,27a49.4,49.4,0,0,0,15.48,6.76l7.72,1.81,7.73-10.73c1.78-2.51,3.52-5.08,5.23-7.68,6.27,3,18.89,3.32,24.73-7C117.46,114.42,108.08,114,105.1,104.27Z" style="fill:#FFC100"></path><path d="M105.1,104.27c.52-.91,1.05-1.82,1.56-2.75,7.84-14.32,13.93-28.37,13.87-43,0-6.31-1.82-11-4.75-13.67v0l-.06,0c-3.42-3.07-9.66-2.75-15.16,0-7.52,3.8-13.72,12-18.36,25.91-4.64-8.53-10.85-8.8-18.36-3.91C58.34,70.34,54.6,75,51.18,82l-.06.13a45.4,45.4,0,0,0-4.74,19.16c-.06,14.73,6,21.75,13.87,27a49.4,49.4,0,0,0,15.48,6.76l7.72,1.81,7.73-10.73c1.78-2.51,3.52-5.08,5.23-7.68,6.27,3,18.89,3.32,24.73-7C117.46,114.42,108.08,114,105.1,104.27Z" style="fill:#fff;opacity:0.30000000000000004"></path><path d="M82.21,70.68a18.53,18.53,0,0,0-3.62-4.57,8.54,8.54,0,0,0-5.18-2.24A11.57,11.57,0,0,0,67.84,65a26.41,26.41,0,0,0-5,3,32.07,32.07,0,0,0-7.92,8.38,53.16,53.16,0,0,0-5.21,10.39A45.29,45.29,0,0,0,47,98a42.4,42.4,0,0,0,.51,11.58,26.58,26.58,0,0,0,4.36,10.67,33.41,33.41,0,0,0,8.37,8.1,32.36,32.36,0,0,1-8.77-7.81,27.1,27.1,0,0,1-4.72-10.81c-.25-1-.34-2-.51-2.92s-.18-2-.25-3-.07-2-.06-3,.07-2,.16-3a45.69,45.69,0,0,1,2.68-11.54,54.32,54.32,0,0,1,5.38-10.55,31.59,31.59,0,0,1,8.24-8.5,26.92,26.92,0,0,1,5.19-2.9,12,12,0,0,1,5.86-1,8.79,8.79,0,0,1,2.89.82,14,14,0,0,1,1.28.77,13.08,13.08,0,0,1,1.15.94A17.37,17.37,0,0,1,82.21,70.68Z" style="fill:#FFC100"></path><g style="opacity:0.6000000000000001"><path d="M82.21,70.68a18.53,18.53,0,0,0-3.62-4.57,8.54,8.54,0,0,0-5.18-2.24A11.57,11.57,0,0,0,67.84,65a26.41,26.41,0,0,0-5,3,32.07,32.07,0,0,0-7.92,8.38,53.16,53.16,0,0,0-5.21,10.39A45.29,45.29,0,0,0,47,98a42.4,42.4,0,0,0,.51,11.58,26.58,26.58,0,0,0,4.36,10.67,33.41,33.41,0,0,0,8.37,8.1,32.36,32.36,0,0,1-8.77-7.81,27.1,27.1,0,0,1-4.72-10.81c-.25-1-.34-2-.51-2.92s-.18-2-.25-3-.07-2-.06-3,.07-2,.16-3a45.69,45.69,0,0,1,2.68-11.54,54.32,54.32,0,0,1,5.38-10.55,31.59,31.59,0,0,1,8.24-8.5,26.92,26.92,0,0,1,5.19-2.9,12,12,0,0,1,5.86-1,8.79,8.79,0,0,1,2.89.82,14,14,0,0,1,1.28.77,13.08,13.08,0,0,1,1.15.94A17.37,17.37,0,0,1,82.21,70.68Z" style="fill:#fff"></path></g><path id="freepik--Check--inject-63" d="M104.87,63a4.7,4.7,0,0,0-6.33,2L77.27,105.4,73.42,101a4.68,4.68,0,1,0-7.08,6.13l8.33,9.63a4.62,4.62,0,0,0,3.14,1.6,4.23,4.23,0,0,0,.94,0,4.68,4.68,0,0,0,3.61-2.47l24.47-46.48A4.69,4.69,0,0,0,104.87,63Z" style="fill:#fafafa"></path></g></g></svg>